<svg width="43" height="38" viewBox="0 0 43 38" fill="none" xmlns="http://www.w3.org/2000/svg">
<g clip-path="url(#clip0_173_13500)">
<path fill-rule="evenodd" clip-rule="evenodd" d="M28.6726 16.7363L28.5039 20.0186L31.3683 18.4158L28.6726 16.7363Z" fill="#8FD700"/>
<path fill-rule="evenodd" clip-rule="evenodd" d="M36.347 11.1909L32.3635 17.6077L28.9561 15.4859L32.9409 9.06787L36.347 11.1909Z" fill="#8FD700"/>
<path fill-rule="evenodd" clip-rule="evenodd" d="M19.2649 33.5294V9.12993C18.0298 8.37339 16.4849 7.7502 14.7265 7.30922C12.8903 6.84975 10.826 6.59229 8.63916 6.59229C7.39085 6.59229 6.19131 6.67546 5.05505 6.82994C4.04402 6.96857 3.07648 7.16398 2.1709 7.40824V31.9529C3.0343 31.7337 3.94515 31.5555 4.89424 31.4274C6.09641 31.2624 7.35262 31.1752 8.63916 31.1752C10.9222 31.1752 13.0867 31.4472 15.0204 31.9305C16.6128 32.3292 18.0469 32.8718 19.2649 33.5294Z" fill="#939393"/>
<path fill-rule="evenodd" clip-rule="evenodd" d="M0 11.4674C0 11.0469 0.253434 10.6668 0.648539 10.5229C0.801518 10.4672 0.959627 10.5812 0.959627 10.7441V32.7491C0.959627 33.0845 1.23117 33.3565 1.56467 33.3565C1.6398 33.3565 1.71098 33.3419 1.77821 33.3168C2.79716 33.0198 3.89783 32.7874 5.0565 32.6276C6.19144 32.4732 7.39229 32.39 8.6406 32.39C10.8274 32.39 12.8917 32.6488 14.7279 33.1082C16.6208 33.5822 18.2659 34.2675 19.5419 35.1019C19.7514 35.2379 20.0151 35.2273 20.2102 35.0953C21.4862 34.2635 23.126 33.5809 25.0149 33.1069C26.8498 32.6488 28.9154 32.3887 31.1022 32.3887C32.3492 32.3887 33.55 32.4718 34.685 32.6263C35.8595 32.7874 36.9733 33.0251 38.0055 33.3274C38.3258 33.4225 38.6606 33.2389 38.7555 32.9168C38.7726 32.86 38.7805 32.8032 38.7805 32.7465V10.7427C38.7805 10.581 38.9396 10.4662 39.0916 10.5216C39.4858 10.6652 39.7388 11.0453 39.7388 11.4648V33.9971C39.7388 34.696 39.0387 35.1819 38.3685 34.9836C37.6584 34.7736 36.9114 34.593 36.135 34.4457C34.5598 34.1486 32.8646 33.9849 31.1009 33.9849C29.1922 33.9849 27.4377 34.1407 25.8308 34.4523C24.2214 34.7652 22.7635 35.2326 21.4506 35.8558C21.2344 35.9482 21.0828 36.1634 21.0828 36.4143V37.7874C21.0828 37.8257 21.0564 37.8653 21.0156 37.8997C20.9444 37.9604 20.8389 37.9974 20.719 37.9974H18.9605C18.8393 37.9974 18.7338 37.9604 18.6626 37.8997C18.6218 37.8653 18.5954 37.8257 18.5954 37.7874V36.347C18.5954 36.1199 18.4662 35.902 18.2474 35.799C16.9306 35.1772 15.4727 34.723 13.8645 34.4246C12.2669 34.1275 10.5269 33.9836 8.63928 33.9836C6.87557 33.9836 5.18041 34.1473 3.60519 34.4444C2.82825 34.5918 2.08074 34.7725 1.36981 34.9828C0.69979 35.181 0 34.6951 0 33.9964L0 11.4674Z" fill="#939393"/>
<path fill-rule="evenodd" clip-rule="evenodd" d="M37.6404 9.10754L36.9866 10.1611L33.5791 8.03808L38.211 0.581609C38.4105 0.260472 38.8327 0.162016 39.1536 0.361766L41.4855 1.81461C41.758 1.98437 41.8417 2.34261 41.6727 2.61554L42.1986 2.94298C42.5967 3.1912 42.8577 3.57938 42.9566 4.00452C43.0554 4.42966 42.9921 4.89309 42.7457 5.29183L40.5298 8.86064C40.3532 9.14451 39.9801 9.23165 39.6967 9.05472C39.4133 8.8778 39.3263 8.50415 39.503 8.22028L41.7188 4.65147C41.79 4.5366 41.8071 4.40193 41.7781 4.27914C41.7504 4.15503 41.674 4.04281 41.5606 3.97019L41.0347 3.64407L37.6826 9.04416C37.6681 9.06397 37.6562 9.08509 37.643 9.10754H37.6404Z" fill="#8FD700"/>
<path fill-rule="evenodd" clip-rule="evenodd" d="M33.0124 6.65845L27.6092 15.3593C27.5486 15.4583 27.5183 15.5666 27.5183 15.6762L27.2401 21.0512C27.223 21.3852 27.4787 21.6691 27.8122 21.6863C27.9388 21.6929 28.0587 21.6599 28.1576 21.5978L32.8213 18.9876C32.9201 18.9387 33.0071 18.8634 33.0691 18.7631L37.5667 11.5185V31.953C36.7033 31.7339 35.7911 31.5556 34.842 31.4276C33.6385 31.2625 32.3836 31.1754 31.0984 31.1754C28.8154 31.1754 26.6496 31.4474 24.7172 31.9306C23.1261 32.3293 21.6906 32.872 20.4727 33.5295V9.13008C21.7065 8.37354 23.2514 7.75167 25.0111 7.31068C26.846 6.85121 28.9116 6.59375 31.0984 6.59375C31.6086 6.59375 32.0923 6.60563 32.551 6.63072C32.704 6.63864 32.8582 6.64788 33.0111 6.65977L33.0124 6.65845Z" fill="#939393"/>
</g>
<defs>
<clipPath id="clip0_173_13500">
<rect width="43" height="38" fill="white"/>
</clipPath>
</defs>
</svg>
