<svg width="20" height="18" viewBox="0 0 20 18" fill="none" xmlns="http://www.w3.org/2000/svg">
<path d="M19.5 9C19.4913 7.96592 18.0895 7.15093 16.3742 7.15093H13.7956C13.308 7.15093 13.1252 7.06329 12.8291 6.73905L6.92577 0.315482C6.73422 0.105161 6.50784 0 6.25533 0H5.13213C4.90575 0 4.77514 0.210321 4.87963 0.446933L7.93579 7.14216L3.46909 7.64167L1.87571 4.78481C1.75381 4.56573 1.57096 4.46933 1.28363 4.46933H0.891815C0.656726 4.46933 0.5 4.62707 0.5 4.86368V13.1363C0.5 13.3729 0.656726 13.5307 0.891815 13.5307H1.28363C1.57096 13.5307 1.75381 13.4343 1.87571 13.2152L3.46909 10.3496L7.93579 10.8578L4.87963 17.5531C4.77514 17.7897 4.90575 18 5.13213 18H6.25533C6.50784 18 6.73422 17.8861 6.92577 17.6845L12.8291 11.261C13.1252 10.9367 13.308 10.8491 13.7956 10.8491H16.3742C18.0895 10.8491 19.4913 10.0253 19.5 9Z" fill="#939393"/>
</svg>
