<svg width="12" height="6" viewBox="0 0 12 6" fill="none" xmlns="http://www.w3.org/2000/svg">
<path d="M5.99592 4.43541L1.34473 0.215312C1.18653 0.0717707 1.00196 0.00239229 0.791018 0.00717735C0.58008 0.0119619 0.395509 0.0861244 0.237306 0.229665C0.0791016 0.373206 0 0.54067 0 0.732058C0 0.923445 0.0791016 1.09091 0.237306 1.23445L5.09416 5.6555C5.22072 5.77033 5.3631 5.85646 5.52131 5.91388C5.67951 5.97129 5.83771 6 5.99592 6C6.15412 6 6.31232 5.97129 6.47053 5.91388C6.62873 5.85646 6.77111 5.77033 6.89768 5.6555L11.7703 1.23445C11.9286 1.09091 12.005 0.921053 11.9997 0.724881C11.9945 0.528708 11.9127 0.358852 11.7545 0.215312C11.5963 0.0717707 11.4118 4.76837e-07 11.2008 4.76837e-07C10.9899 4.76837e-07 10.8053 0.0717707 10.6471 0.215312L5.99592 4.43541Z" fill="#939393"/>
</svg>
