<svg width="6" height="10" viewBox="0 0 6 10" fill="none" xmlns="http://www.w3.org/2000/svg">
<path d="M4.43541 5.0034L0.215311 8.87939C0.0717702 9.01123 0.00239182 9.16504 0.00717688 9.34082C0.0119615 9.5166 0.0861239 9.67041 0.229665 9.80225C0.373205 9.93408 0.540669 10 0.732057 10C0.923445 10 1.09091 9.93408 1.23445 9.80225L5.6555 5.75487C5.77033 5.6494 5.85646 5.53075 5.91388 5.39891C5.97129 5.26708 6 5.13524 6 5.0034C6 4.87157 5.97129 4.73973 5.91388 4.60789C5.85646 4.47606 5.77033 4.3574 5.6555 4.25194L1.23445 0.191375C1.09091 0.059539 0.921052 -0.00418191 0.72488 0.000212639C0.528708 0.00460718 0.358851 0.0727226 0.215311 0.204559C0.0717702 0.336395 0 0.490204 0 0.665986C0 0.841768 0.0717702 0.995577 0.215311 1.12741L4.43541 5.0034Z" fill="#8FD700"/>
</svg>
