<svg width="18" height="16" viewBox="0 0 18 16" fill="none" xmlns="http://www.w3.org/2000/svg">
<path d="M3 16C2.16667 16 1.45833 15.7083 0.875 15.125C0.291667 14.5417 0 13.8333 0 13C0 12.1667 0.291667 11.4583 0.875 10.875C1.45833 10.2917 2.16667 10 3 10C3.83333 10 4.54167 10.2917 5.125 10.875C5.70833 11.4583 6 12.1667 6 13C6 13.8333 5.70833 14.5417 5.125 15.125C4.54167 15.7083 3.83333 16 3 16ZM15 16C14.1667 16 13.4583 15.7083 12.875 15.125C12.2917 14.5417 12 13.8333 12 13C12 12.1667 12.2917 11.4583 12.875 10.875C13.4583 10.2917 14.1667 10 15 10C15.8333 10 16.5417 10.2917 17.125 10.875C17.7083 11.4583 18 12.1667 18 13C18 13.8333 17.7083 14.5417 17.125 15.125C16.5417 15.7083 15.8333 16 15 16ZM9 6C8.16667 6 7.45833 5.70833 6.875 5.125C6.29167 4.54167 6 3.83333 6 3C6 2.16667 6.29167 1.45833 6.875 0.875C7.45833 0.291667 8.16667 0 9 0C9.83333 0 10.5417 0.291667 11.125 0.875C11.7083 1.45833 12 2.16667 12 3C12 3.83333 11.7083 4.54167 11.125 5.125C10.5417 5.70833 9.83333 6 9 6Z" fill="#939393"/>
</svg>
