<svg width="18" height="19" viewBox="0 0 18 19" fill="none" xmlns="http://www.w3.org/2000/svg">
<path d="M1.47656 15.2314H5.09766C5.15918 16.9014 6.53027 18.4482 8.55176 18.4482C10.5645 18.4482 11.9443 16.9189 12.0146 15.2314H15.627C16.541 15.2314 17.1035 14.7305 17.1035 13.9746C17.1035 13.0342 16.251 12.2344 15.4512 11.4697C14.8271 10.8633 14.6777 9.65039 14.5635 8.41113C14.4404 5.09766 13.4648 2.88281 11.1797 2.05664C10.8369 0.887695 9.86133 0 8.55176 0C7.24219 0 6.2666 0.887695 5.93262 2.05664C3.63867 2.88281 2.67188 5.09766 2.54004 8.41113C2.42578 9.65039 2.27637 10.8633 1.65234 11.4697C0.852539 12.2344 0 13.0342 0 13.9746C0 14.7305 0.5625 15.2314 1.47656 15.2314ZM2.14453 13.5967V13.4912C2.37305 13.2363 2.88281 12.7705 3.31348 12.2783C3.91992 11.584 4.20117 10.3008 4.28906 8.63086C4.39453 5.10645 5.48438 3.91992 6.89062 3.54199C7.11035 3.48047 7.22461 3.375 7.24219 3.1377C7.28613 2.25 7.78711 1.65234 8.55176 1.65234C9.3252 1.65234 9.81738 2.25 9.86133 3.1377C9.87891 3.375 10.002 3.48047 10.2129 3.54199C11.6279 3.91992 12.709 5.10645 12.8145 8.63086C12.9111 10.3008 13.1924 11.584 13.79 12.2783C14.2207 12.7705 14.7129 13.2363 14.9414 13.4912V13.5967H2.14453ZM8.55176 17.0332C7.55859 17.0332 6.84668 16.3213 6.78516 15.2314H10.3271C10.2744 16.3125 9.55371 17.0332 8.55176 17.0332Z" fill="#939393"/>
</svg>
