<svg width="13" height="17" viewBox="0 0 13 17" fill="none" xmlns="http://www.w3.org/2000/svg">
<path d="M1.5865 16.7362C1.9933 16.7362 2.25698 16.5253 2.89732 15.9L6.60525 13.0222C6.63538 12.9845 6.70318 12.9845 6.73332 13.0222L10.4488 15.9C11.0891 16.5253 11.3453 16.7362 11.7596 16.7362C12.3623 16.7362 12.739 16.3218 12.739 15.6438V2.49037C12.739 0.991211 11.9555 0.200195 10.4714 0.200195H2.86719C1.38309 0.200195 0.599609 0.991211 0.599609 2.49037V15.6438C0.599609 16.3218 0.976283 16.7362 1.5865 16.7362ZM2.30218 14.2577C2.20424 14.3556 2.08371 14.3255 2.08371 14.1823V2.58831C2.08371 1.98563 2.38504 1.69182 2.98772 1.69182H10.3508C10.9535 1.69182 11.2549 1.98563 11.2549 2.58831V14.1823C11.2549 14.3255 11.1419 14.3556 11.0364 14.2577L7.17026 11.2895C6.85385 10.9731 6.49224 10.9731 6.1683 11.2895L2.30218 14.2577Z" fill="white"/>
</svg>
