<svg width="51" height="45" viewBox="0 0 51 45" fill="none" xmlns="http://www.w3.org/2000/svg">
<path fill-rule="evenodd" clip-rule="evenodd" d="M23.746 16.9215V18.3118C23.746 18.4486 23.8002 18.575 23.8886 18.6657C23.977 18.7564 24.0967 18.8129 24.2293 18.8129H31.9922C32.1334 18.8129 32.2646 18.859 32.3715 18.9393L34.587 20.2746L36.9095 21.6709V19.4954C36.9095 19.1192 37.2017 18.8129 37.5639 18.8129H40.2627C40.3939 18.8129 40.5151 18.7564 40.602 18.6657C40.689 18.575 40.7432 18.4486 40.7432 18.3118V6.17499C40.7432 6.03818 40.689 5.91179 40.602 5.8196C40.5136 5.72889 40.3939 5.6709 40.2627 5.6709H35.1373V14.1363C35.1373 14.6746 34.9263 15.1653 34.587 15.5177C34.2477 15.8716 33.7786 16.0917 33.2625 16.0917H25.1204L23.7432 16.92L23.746 16.9215Z" fill="#8FD700"/>
<path fill-rule="evenodd" clip-rule="evenodd" d="M22.8223 15.8519L22.2993 16.1642C22.2881 16.1715 22.2769 16.1788 22.2657 16.1875L19.7854 17.6709V15.3128C19.7854 14.9438 19.498 14.6445 19.1404 14.6445H16.2984C16.147 14.6445 16.0082 14.5806 15.9072 14.476C15.8063 14.3713 15.7432 14.2275 15.7432 14.0706V2.2448C15.7432 2.08788 15.8063 1.9455 15.9072 1.84089C16.0082 1.73628 16.1456 1.6709 16.2984 1.6709H33.1893C33.3422 1.6709 33.4782 1.73628 33.5805 1.84089C33.6801 1.94404 33.7432 2.08788 33.7432 2.2448V14.0691C33.7432 14.2275 33.6801 14.3713 33.5805 14.4745C33.4796 14.5777 33.3422 14.643 33.1893 14.643H25.0124C24.8792 14.643 24.7544 14.6852 24.652 14.7578L22.9036 15.8039C22.8756 15.817 22.8489 15.833 22.8237 15.8519H22.8223Z" fill="#8FD700"/>
<path fill-rule="evenodd" clip-rule="evenodd" d="M16.536 20.4348C15.8629 19.7575 14.9328 19.3389 13.9062 19.3389C12.8797 19.3389 11.9514 19.7575 11.2783 20.4348C10.6053 21.1121 10.1875 22.0481 10.1875 23.0811C10.1875 24.1141 10.6053 25.0502 11.2783 25.7275C11.9514 26.403 12.8797 26.8234 13.9062 26.8234C14.9328 26.8234 15.8629 26.403 16.536 25.7275C17.209 25.0502 17.625 24.1141 17.625 23.0811C17.625 22.0481 17.209 21.1121 16.536 20.4348Z" fill="#939393"/>
<path fill-rule="evenodd" clip-rule="evenodd" d="M18.2209 33.2209C18.1339 31.9033 17.5314 30.7105 16.6032 29.8267C15.5864 28.8564 14.1807 28.2544 12.631 28.2544C11.0813 28.2544 9.67872 28.8564 8.66194 29.8235C7.65466 30.7841 7.02846 32.1066 7.0253 33.554L7.00443 42.9941C7.00199 44.1004 7.89813 44.9985 9.00443 44.9985H18.2335V43.319H17.465C17.0634 43.319 16.7376 42.9891 16.7376 42.5825V39.9791H15.8679C15.6782 39.9791 15.5042 39.9055 15.3746 39.7838L11.9416 37.0763C11.6269 36.8282 11.5715 36.3655 11.8166 36.0469C12.0633 35.7282 12.5171 35.6706 12.8334 35.9204L16.113 38.5093H22.6786C23.4581 38.5093 23.9531 38.0914 24.1634 37.5583C24.2488 37.3405 24.2931 37.0988 24.2931 36.8538C24.2931 36.6088 24.2488 36.3671 24.1634 36.1493C23.9515 35.6162 23.4581 35.1999 22.6786 35.1999H18.7063C18.5624 35.1999 18.4154 35.1567 18.2889 35.0654L15.9628 33.4067C15.6355 33.1729 15.5548 32.7134 15.7857 32.382C16.0166 32.0506 16.4688 31.9721 16.7961 32.2043L18.2225 33.2225L18.2209 33.2209Z" fill="#939393"/>
<path fill-rule="evenodd" clip-rule="evenodd" d="M44.0938 19.3389C43.0672 19.3389 42.1389 19.7575 41.4658 20.4348C40.791 21.1121 40.375 22.0481 40.375 23.0811C40.375 24.1141 40.791 25.0502 41.4658 25.7275C42.1389 26.403 43.0672 26.8234 44.0938 26.8234C45.1203 26.8234 46.0486 26.403 46.7235 25.7275C47.3965 25.0502 47.8125 24.1141 47.8125 23.0811C47.8125 22.0481 47.3965 21.1121 46.7235 20.4348C46.0504 19.7575 45.1203 19.3389 44.0938 19.3389Z" fill="#939393"/>
<path fill-rule="evenodd" clip-rule="evenodd" d="M39.7666 43.3204V45H48.9944C50.1006 45 50.9967 44.102 50.9944 42.9958L50.9748 33.5554C50.9701 32.1081 50.3454 30.7856 49.3366 29.8249C48.3214 28.8579 46.9172 28.2559 45.3691 28.2559C43.821 28.2559 42.4121 28.8579 41.3969 29.8281C40.4687 30.7119 39.8662 31.9047 39.7776 33.2224L41.2055 32.2041C41.5329 31.972 41.9851 32.0504 42.216 32.3818C42.4453 32.7133 42.3678 33.1712 42.0389 33.4065L39.7128 35.0653C39.5847 35.1565 39.4408 35.1997 39.2953 35.1997H35.3231C34.5404 35.1997 34.0486 35.616 33.8367 36.1492C33.7497 36.3669 33.707 36.6087 33.707 36.8537C33.707 37.0986 33.7497 37.3404 33.8367 37.5581C34.0486 38.0913 34.542 38.5092 35.3231 38.5092H41.8871L45.1667 35.9202C45.483 35.6705 45.9368 35.7265 46.1835 36.0467C46.4286 36.3653 46.3732 36.8264 46.0585 37.0762L42.6271 39.7836C42.4975 39.9053 42.3235 39.979 42.1338 39.979H41.2625V42.5823C41.2625 42.989 40.9383 43.3188 40.5367 43.3188H39.7666V43.3204Z" fill="#939393"/>
<path fill-rule="evenodd" clip-rule="evenodd" d="M22 45C20.8954 45 20 44.1046 20 43V41H38V43C38 44.1046 37.1046 45 36 45H22Z" fill="#939393"/>
<path fill-rule="evenodd" clip-rule="evenodd" d="M35.3247 39.9807H38.8766C39.3925 39.9807 39.8108 40.399 39.8108 40.9149C39.8108 41.4309 39.3925 41.8492 38.8766 41.8492H19.1252C18.6092 41.8492 18.1909 41.4309 18.1909 40.9149C18.1909 40.399 18.6092 39.9807 19.1251 39.9807H20.6771H35.3247Z" fill="#939393"/>
<path d="M22 8.58535C22 9.41378 21.3284 10.0854 20.5 10.0854C19.6716 10.0854 19 9.41378 19 8.58535C19 7.75693 19.6716 7.08535 20.5 7.08535C21.3284 7.08535 22 7.75693 22 8.58535Z" fill="white"/>
<path d="M26.4937 8.55542C26.4937 9.38385 25.8221 10.0554 24.9937 10.0554C24.1652 10.0554 23.4937 9.38385 23.4937 8.55542C23.4937 7.72699 24.1652 7.05542 24.9937 7.05542C25.8221 7.05542 26.4937 7.72699 26.4937 8.55542Z" fill="white"/>
<path d="M31 8.50015C31 9.32857 30.3284 10.0001 29.5 10.0001C28.6716 10.0001 28 9.32857 28 8.50015C28 7.67172 28.6716 7.00015 29.5 7.00015C30.3284 7.00015 31 7.67172 31 8.50015Z" fill="white"/>
</svg>
