<svg width="18" height="20" viewBox="0 0 18 20" fill="none" xmlns="http://www.w3.org/2000/svg">
<path fill-rule="evenodd" clip-rule="evenodd" d="M14 0.5C14.2833 0.5 14.5212 0.595443 14.7129 0.787109C14.9046 0.978776 15 1.21667 15 1.5V2.5H16C16.55 2.5 17.0204 2.69622 17.4121 3.08789C17.8038 3.47956 18 3.95 18 4.5V18C18 18.55 17.8038 19.0204 17.4121 19.4121C17.0204 19.8038 16.55 20 16 20H2C1.45 20 0.979557 19.8038 0.587891 19.4121C0.196224 19.0204 0 18.55 0 18V4.5C0 3.95 0.196224 3.47956 0.587891 3.08789C0.979557 2.69622 1.45 2.5 2 2.5H3V1.5C3 1.21667 3.09544 0.978776 3.28711 0.787109C3.47878 0.595443 3.71667 0.5 4 0.5C4.28333 0.5 4.52122 0.595443 4.71289 0.787109C4.90456 0.978776 5 1.21667 5 1.5V2.5H13V1.5C13 1.21667 13.0954 0.978776 13.2871 0.787109C13.4788 0.595443 13.7167 0.5 14 0.5ZM11.5 11C10.8 11 10.2079 11.2413 9.72461 11.7246C9.24128 12.2079 9 12.8 9 13.5C9 14.2 9.24128 14.7921 9.72461 15.2754C10.2079 15.7587 10.8 16 11.5 16C12.2 16 12.7921 15.7587 13.2754 15.2754C13.7587 14.7921 14 14.2 14 13.5C14 12.8 13.7587 12.2079 13.2754 11.7246C12.7921 11.2413 12.2 11 11.5 11ZM2 7H16V4.5H2V7Z" fill="#8FD700"/>
</svg>
