<svg width="18" height="20" viewBox="0 0 18 20" fill="none" xmlns="http://www.w3.org/2000/svg">
<path d="M11.5 16C10.8 16 10.2083 15.7583 9.725 15.275C9.24167 14.7917 9 14.2 9 13.5C9 12.8 9.24167 12.2083 9.725 11.725C10.2083 11.2417 10.8 11 11.5 11C12.2 11 12.7917 11.2417 13.275 11.725C13.7583 12.2083 14 12.8 14 13.5C14 14.2 13.7583 14.7917 13.275 15.275C12.7917 15.7583 12.2 16 11.5 16ZM2 20C1.45 20 0.979167 19.8042 0.5875 19.4125C0.195833 19.0208 0 18.55 0 18V4.5C0 3.95 0.195833 3.47917 0.5875 3.0875C0.979167 2.69583 1.45 2.5 2 2.5H3V1.5C3 1.21667 3.09583 0.979167 3.2875 0.7875C3.47917 0.595833 3.71667 0.5 4 0.5C4.28333 0.5 4.52083 0.595833 4.7125 0.7875C4.90417 0.979167 5 1.21667 5 1.5V2.5H13V1.5C13 1.21667 13.0958 0.979167 13.2875 0.7875C13.4792 0.595833 13.7167 0.5 14 0.5C14.2833 0.5 14.5208 0.595833 14.7125 0.7875C14.9042 0.979167 15 1.21667 15 1.5V2.5H16C16.55 2.5 17.0208 2.69583 17.4125 3.0875C17.8042 3.47917 18 3.95 18 4.5V18C18 18.55 17.8042 19.0208 17.4125 19.4125C17.0208 19.8042 16.55 20 16 20H2ZM2 18H16V9H2V18ZM2 7H16V4.5H2V7Z" fill="#939393"/>
</svg>
