<svg width="22" height="18" viewBox="0 0 22 18" fill="none" xmlns="http://www.w3.org/2000/svg">
<path d="M20.9 10.0641H18.7C18.3883 10.0641 18.1271 9.95701 17.9163 9.74288C17.7054 9.52875 17.6 9.26342 17.6 8.94688C17.6 8.63034 17.7054 8.36501 17.9163 8.15088C18.1271 7.93675 18.3883 7.82968 18.7 7.82968H20.9C21.2117 7.82968 21.4729 7.93675 21.6838 8.15088C21.8946 8.36501 22 8.63034 22 8.94688C22 9.26342 21.8946 9.52875 21.6838 9.74288C21.4729 9.95701 21.2117 10.0641 20.9 10.0641ZM16.06 14.3094C16.2433 14.0487 16.4817 13.8998 16.775 13.8625C17.0683 13.8253 17.3433 13.8998 17.6 14.086L19.36 15.4266C19.6167 15.6128 19.7633 15.8549 19.8 16.1528C19.8367 16.4507 19.7633 16.73 19.58 16.9907C19.3967 17.2514 19.1583 17.4003 18.865 17.4376C18.5717 17.4748 18.2967 17.4003 18.04 17.2141L16.28 15.8735C16.0233 15.6873 15.8767 15.4452 15.84 15.1473C15.8033 14.8494 15.8767 14.5701 16.06 14.3094ZM19.36 2.46714L17.6 3.80778C17.3433 3.99398 17.0683 4.06846 16.775 4.03122C16.4817 3.99398 16.2433 3.84502 16.06 3.58434C15.8767 3.32366 15.8033 3.04436 15.84 2.74644C15.8767 2.44852 16.0233 2.20646 16.28 2.02026L18.04 0.679628C18.2967 0.493428 18.5717 0.418949 18.865 0.456188C19.1583 0.493428 19.3967 0.642388 19.58 0.903067C19.7633 1.16375 19.8367 1.44304 19.8 1.74096C19.7633 2.03888 19.6167 2.28094 19.36 2.46714ZM3.3 13.2985H2.2C1.595 13.2985 1.07708 13.0797 0.64625 12.6421C0.215417 12.2045 0 11.6785 0 11.0641V6.82968C0 6.21523 0.215417 5.68921 0.64625 5.25164C1.07708 4.81407 1.595 4.59529 2.2 4.59529H6.6L10.4225 2.24918C10.7892 2.02574 11.1604 2.02574 11.5363 2.24918C11.9121 2.47262 12.1 2.79847 12.1 3.22673V14.667C12.1 15.0953 11.9121 15.4211 11.5363 15.6446C11.1604 15.868 10.7892 15.868 10.4225 15.6446L6.6 13.2985H5.5V16.6501C5.5 16.9666 5.39458 17.2319 5.18375 17.4461C4.97292 17.6602 4.71167 17.7673 4.4 17.7673C4.08833 17.7673 3.82708 17.6602 3.61625 17.4461C3.40542 17.2319 3.3 16.9666 3.3 16.6501V13.2985ZM9.9 12.684V5.20975L7.205 6.82968H2.2V11.0641H7.205L9.9 12.684ZM13.2 12.6895V5.20427C13.695 5.65115 14.0938 6.19578 14.3963 6.83817C14.6988 7.48056 14.85 8.18346 14.85 8.94688C14.85 9.7103 14.6988 10.4132 14.3963 11.0556C14.0938 11.698 13.695 12.2426 13.2 12.6895Z" fill="#939393"/>
</svg>
