<svg width="18" height="18" viewBox="0 0 18 18" fill="none" xmlns="http://www.w3.org/2000/svg">
<path d="M9.83317 8.6665V5.6665C9.83317 5.43039 9.75331 5.23248 9.59359 5.07275C9.43387 4.91303 9.23595 4.83317 8.99984 4.83317C8.76373 4.83317 8.56581 4.91303 8.40609 5.07275C8.24637 5.23248 8.1665 5.43039 8.1665 5.6665V8.979C8.1665 9.09012 8.18734 9.19775 8.229 9.30192C8.27067 9.40609 8.33317 9.49984 8.4165 9.58317L11.1665 12.3332C11.3193 12.4859 11.5137 12.5623 11.7498 12.5623C11.9859 12.5623 12.1804 12.4859 12.3332 12.3332C12.4859 12.1804 12.5623 11.9859 12.5623 11.7498C12.5623 11.5137 12.4859 11.3193 12.3332 11.1665L9.83317 8.6665ZM8.99984 17.3332C7.84706 17.3332 6.76373 17.1144 5.74984 16.6769C4.73595 16.2394 3.854 15.6457 3.104 14.8957C2.354 14.1457 1.76025 13.2637 1.32275 12.2498C0.885254 11.2359 0.666504 10.1526 0.666504 8.99984C0.666504 7.84706 0.885254 6.76373 1.32275 5.74984C1.76025 4.73595 2.354 3.854 3.104 3.104C3.854 2.354 4.73595 1.76025 5.74984 1.32275C6.76373 0.885254 7.84706 0.666504 8.99984 0.666504C10.1526 0.666504 11.2359 0.885254 12.2498 1.32275C13.2637 1.76025 14.1457 2.354 14.8957 3.104C15.6457 3.854 16.2394 4.73595 16.6769 5.74984C17.1144 6.76373 17.3332 7.84706 17.3332 8.99984C17.3332 10.1526 17.1144 11.2359 16.6769 12.2498C16.2394 13.2637 15.6457 14.1457 14.8957 14.8957C14.1457 15.6457 13.2637 16.2394 12.2498 16.6769C11.2359 17.1144 10.1526 17.3332 8.99984 17.3332ZM8.99984 15.6665C10.8471 15.6665 12.42 15.0172 13.7186 13.7186C15.0172 12.42 15.6665 10.8471 15.6665 8.99984C15.6665 7.15262 15.0172 5.5797 13.7186 4.28109C12.42 2.98248 10.8471 2.33317 8.99984 2.33317C7.15262 2.33317 5.5797 2.98248 4.28109 4.28109C2.98248 5.5797 2.33317 7.15262 2.33317 8.99984C2.33317 10.8471 2.98248 12.42 4.28109 13.7186C5.5797 15.0172 7.15262 15.6665 8.99984 15.6665Z" fill="#939393"/>
</svg>
