<svg width="14" height="12" viewBox="0 0 14 12" fill="none" xmlns="http://www.w3.org/2000/svg">
<path d="M1.39993 8.10623e-05C1.01105 8.10623e-05 0.722157 0.166748 0.533268 0.500081C0.344379 0.833414 0.344379 1.16675 0.533268 1.50008L6.13327 11.1667C6.23327 11.3334 6.36105 11.4584 6.5166 11.5417C6.67216 11.6251 6.83327 11.6667 6.99993 11.6667C7.1666 11.6667 7.32771 11.6251 7.48327 11.5417C7.63882 11.4584 7.7666 11.3334 7.8666 11.1667L13.4666 1.50008C13.6555 1.16675 13.6555 0.833414 13.4666 0.500081C13.2777 0.166748 12.9888 8.10623e-05 12.5999 8.10623e-05H1.39993Z" fill="#D31235"/>
</svg>
