<svg width="21" height="22" viewBox="0 0 21 22" fill="none" xmlns="http://www.w3.org/2000/svg">
<path d="M2 22.0001C1.45 22.0001 0.979167 21.8043 0.5875 21.4126C0.195833 21.0209 0 20.5501 0 20.0001V5.0001C0 4.4501 0.195833 3.97926 0.5875 3.5876C0.979167 3.19593 1.45 3.0001 2 3.0001H8.525C8.85833 3.0001 9.10833 3.10426 9.275 3.3126C9.44167 3.52093 9.525 3.7501 9.525 4.0001C9.525 4.2501 9.4375 4.47926 9.2625 4.6876C9.0875 4.89593 8.83333 5.0001 8.5 5.0001H2V20.0001H17V13.4751C17 13.1418 17.1042 12.8918 17.3125 12.7251C17.5208 12.5584 17.75 12.4751 18 12.4751C18.25 12.4751 18.4792 12.5584 18.6875 12.7251C18.8958 12.8918 19 13.1418 19 13.4751V20.0001C19 20.5501 18.8042 21.0209 18.4125 21.4126C18.0208 21.8043 17.55 22.0001 17 22.0001H2ZM7 14.0001V11.5751C7 11.3084 7.05 11.0543 7.15 10.8126C7.25 10.5709 7.39167 10.3584 7.575 10.1751L16.175 1.5751C16.375 1.3751 16.6 1.2251 16.85 1.1251C17.1 1.0251 17.35 0.975098 17.6 0.975098C17.8667 0.975098 18.1208 1.0251 18.3625 1.1251C18.6042 1.2251 18.825 1.3751 19.025 1.5751L20.425 3.0001C20.6083 3.2001 20.75 3.42093 20.85 3.6626C20.95 3.90426 21 4.1501 21 4.4001C21 4.6501 20.9542 4.89593 20.8625 5.1376C20.7708 5.37926 20.625 5.6001 20.425 5.8001L11.825 14.4001C11.6417 14.5834 11.4292 14.7293 11.1875 14.8376C10.9458 14.9459 10.6917 15.0001 10.425 15.0001H8C7.71667 15.0001 7.47917 14.9043 7.2875 14.7126C7.09583 14.5209 7 14.2834 7 14.0001ZM9 13.0001H10.4L17 6.5L15.5 5.0001L9 11.5751V13.0001Z" fill="#939393"/>
</svg>
