<svg width="16" height="16" viewBox="0 0 16 16" fill="none" xmlns="http://www.w3.org/2000/svg">
<path d="M0.888889 16C0.637037 16 0.425926 15.9148 0.255556 15.7444C0.0851852 15.5741 0 15.363 0 15.1111V12.9556C0 12.7185 0.0444444 12.4926 0.133333 12.2778C0.222222 12.063 0.348148 11.8741 0.511111 11.7111L11.7333 0.511111C11.9111 0.348148 12.1074 0.222222 12.3222 0.133333C12.537 0.0444444 12.763 0 13 0C13.237 0 13.4667 0.0444444 13.6889 0.133333C13.9111 0.222222 14.1037 0.355556 14.2667 0.533333L15.4889 1.77778C15.6667 1.94074 15.7963 2.13333 15.8778 2.35556C15.9593 2.57778 16 2.8 16 3.02222C16 3.25926 15.9593 3.48519 15.8778 3.7C15.7963 3.91481 15.6667 4.11111 15.4889 4.28889L4.28889 15.4889C4.12593 15.6519 3.93704 15.7778 3.72222 15.8667C3.50741 15.9556 3.28148 16 3.04444 16H0.888889ZM12.9778 4.26667L14.2222 3.02222L12.9778 1.77778L11.7333 3.02222L12.9778 4.26667Z" fill="#939393"/>
</svg>
