<svg width="20" height="20" viewBox="0 0 20 20" fill="none" xmlns="http://www.w3.org/2000/svg">
<path d="M9.4375 0C10.1041 0 10.6997 0.187623 11.2246 0.5625C11.7496 0.937476 12.1038 1.41672 12.2871 2H16.4375C16.9875 2 17.4579 2.19622 17.8496 2.58789C18.2413 2.97956 18.4375 3.45 18.4375 4L18.4502 7.59961C18.4502 7.67039 18.4451 7.74056 18.4375 7.80957V8C18.4375 8.28333 18.3421 8.52122 18.1504 8.71289C18.101 8.76228 18.0477 8.80416 17.9922 8.84082C17.9473 8.89583 17.9002 8.94942 17.8496 9L14.0508 12.874C13.7065 13.2251 13.1484 13.2466 12.7783 12.9229L12.4736 12.6572C10.8918 11.2731 8.44276 11.6576 7.36133 13.46C6.80814 14.3823 6.89934 15.5536 7.58789 16.3799L9.1123 18C9.61226 18.5 9.71532 19 9.5127 19.5C9.3877 19.8083 8.92897 20 8.6123 20H2.4375C1.8875 20 1.41706 19.8038 1.02539 19.4121C0.633724 19.0204 0.4375 18.55 0.4375 18V4C0.4375 3.45 0.633724 2.97956 1.02539 2.58789C1.41706 2.19622 1.8875 2 2.4375 2H6.6123C6.79564 1.41667 7.15417 0.9375 7.6875 0.5625C8.22083 0.1875 8.80417 0 9.4375 0ZM18.5879 10.9004C18.8709 10.9005 19.1039 10.9918 19.2871 11.1748C19.4704 11.3581 19.5625 11.5917 19.5625 11.875C19.5625 12.1583 19.4704 12.3919 19.2871 12.5752L13.6377 18.2246C13.4377 18.4246 13.2042 18.5254 12.9375 18.5254C12.6708 18.5254 12.4373 18.4246 12.2373 18.2246L9.3877 15.375C9.20436 15.1917 9.1123 14.9581 9.1123 14.6748C9.11235 14.3916 9.2044 14.1579 9.3877 13.9746C9.57098 13.7915 9.80471 13.7002 10.0879 13.7002C10.3708 13.7003 10.6039 13.7916 10.7871 13.9746L12.9375 16.125L17.8877 11.1748C18.071 10.9916 18.3047 10.9004 18.5879 10.9004ZM9.5 2C8.94771 2 8.5 2.44772 8.5 3C8.5 3.55228 8.94771 4 9.5 4C10.0523 4 10.5 3.55228 10.5 3C10.5 2.44772 10.0523 2 9.5 2Z" fill="#8FD700"/>
</svg>
