<svg width="16" height="17" viewBox="0 0 16 17" fill="none" xmlns="http://www.w3.org/2000/svg">
<path d="M15.1111 0H0.888889C0.653141 0 0.427049 0.0942674 0.26035 0.262064C0.0936507 0.429861 0 0.657443 0 0.894744V3.21213C0 3.68008 0.189333 4.13998 0.518222 4.47104L5.33333 9.31786V16.1054C5.33351 16.2578 5.37233 16.4077 5.44613 16.5408C5.51993 16.6739 5.62626 16.7859 5.75506 16.8661C5.88386 16.9463 6.03085 16.992 6.18214 16.9991C6.33342 17.0061 6.48398 16.9741 6.61955 16.9062L10.1751 15.1167C10.4764 14.9646 10.6667 14.655 10.6667 14.3159V9.31786L15.4818 4.47104C15.8107 4.13998 16 3.68008 16 3.21213V0.894744C16 0.657443 15.9064 0.429861 15.7397 0.262064C15.573 0.0942674 15.3469 0 15.1111 0ZM9.14933 8.31485C9.06663 8.3978 9.00104 8.4964 8.95634 8.60496C8.91164 8.71353 8.88872 8.82992 8.88889 8.94744V13.7629L7.11111 14.6577V8.94744C7.11128 8.82992 7.08836 8.71353 7.04366 8.60496C6.99896 8.4964 6.93337 8.3978 6.85067 8.31485L1.77778 3.21213V1.78949H14.2231L14.2249 3.20587L9.14933 8.31485Z" fill="#939393"/>
</svg>
