<svg width="16" height="17" viewBox="0 0 16 17" fill="none" xmlns="http://www.w3.org/2000/svg">
<path d="M0 7.71637C0 8.60395 0.523785 9.01176 1.43223 9.01176H7.21841V4.50188H5.99079C4.73862 4.50188 4.01841 3.75823 4.01841 2.88664C4.01841 2.03904 4.62404 1.51929 5.50793 1.51929C6.4491 1.51929 7.21841 2.25494 7.21841 3.38241V4.50188H8.78159V9.01176H14.5678C15.4844 9.01176 16 8.60395 16 7.71637V5.9412C16 4.94967 15.4353 4.50188 14.4123 4.50188H12.8082C13.2829 4.05409 13.5693 3.44638 13.5693 2.73471C13.5693 1.13547 12.268 0 10.6394 0C9.42813 0 8.40512 0.663688 8.00409 1.84713C7.60307 0.663688 6.57187 0 5.36061 0C3.73197 0 2.43069 1.13547 2.43069 2.73471C2.43069 3.44638 2.71714 4.05409 3.19182 4.50188H1.58772C0.605627 4.50188 0 4.94967 0 5.9412V7.71637ZM10.4921 1.51929C11.376 1.51929 11.9816 2.03904 11.9816 2.88664C11.9816 3.75823 11.2614 4.50188 10.0092 4.50188H8.78159V3.38241C8.78159 2.25494 9.55089 1.51929 10.4921 1.51929ZM1.12941 14.897C1.12941 16.2563 1.95601 17 3.3555 17H7.21841V9.9873H1.12941V14.897ZM8.78159 17H12.6445C14.044 17 14.8706 16.2563 14.8706 14.897V9.9873H8.78159V17Z" fill="#8FD700"/>
</svg>
