<svg width="20" height="22" viewBox="0 0 20 22" fill="none" xmlns="http://www.w3.org/2000/svg">
<path d="M4.42514 22H15.5749C17.5064 22 18.5795 20.9445 18.5795 18.9887V12.8006H18.6408C19.5299 12.5419 20 11.7761 20 10.6378V8.0301C20 6.61242 19.2233 5.73283 17.8334 5.73283H16.0756C16.6275 5.17404 16.9545 4.41863 16.9545 3.53904C16.9545 1.46943 15.3296 0 13.2959 0C11.7833 0 10.5059 0.85889 9.99489 2.3904C9.49412 0.85889 8.21666 0 6.70414 0C4.67041 0 3.04548 1.46943 3.04548 3.53904C3.04548 4.41863 3.37251 5.17404 3.92437 5.73283H2.16658C0.827798 5.73283 0 6.61242 0 8.0301V10.6378C0 11.7761 0.470107 12.5419 1.349 12.8006H1.41032V18.9887C1.41032 20.9445 2.49361 22 4.42514 22ZM9.02402 5.73283H7.49106C5.92744 5.73283 5.0281 4.86359 5.0281 3.73565C5.0281 2.63876 5.78436 1.96613 6.88809 1.96613C8.06336 1.96613 9.02402 2.91816 9.02402 4.37723V5.73283ZM10.976 5.73283V4.37723C10.976 2.91816 11.9366 1.96613 13.1119 1.96613C14.2156 1.96613 14.9719 2.63876 14.9719 3.73565C14.9719 4.86359 14.0726 5.73283 12.5089 5.73283H10.976ZM8.9627 11.0724H2.70823C2.21768 11.0724 2.01329 10.8655 2.01329 10.3688V8.29915C2.01329 7.80245 2.21768 7.59548 2.70823 7.59548H8.9627V11.0724ZM11.0373 11.0724V7.59548H17.302C17.7823 7.59548 17.9765 7.80245 17.9765 8.29915V10.3895C17.9765 10.8862 17.7823 11.0724 17.302 11.0724H11.0373ZM8.9627 20.1167H4.69085C3.8835 20.1167 3.43383 19.6613 3.43383 18.8542V12.9351H8.9627V20.1167ZM11.0373 20.1167V12.9351H16.5662V18.8542C16.5662 19.6613 16.1165 20.1167 15.3091 20.1167H11.0373Z" fill="#939393"/>
</svg>
