<svg width="16" height="17" viewBox="0 0 16 17" fill="none" xmlns="http://www.w3.org/2000/svg">
<path d="M3.54011 17H12.4599C14.0051 17 14.8636 16.1844 14.8636 14.6731V9.89135H14.9126C15.6239 9.69144 16 9.09972 16 8.22013V6.20508C16 5.1096 15.3786 4.42992 14.2667 4.42992H12.8605C13.302 3.99812 13.5636 3.41439 13.5636 2.73471C13.5636 1.13547 12.2637 0 10.6367 0C9.42667 0 8.4047 0.663688 7.99591 1.84713C7.5953 0.663688 6.57333 0 5.36331 0C3.73633 0 2.43638 1.13547 2.43638 2.73471C2.43638 3.41439 2.69801 3.99812 3.1395 4.42992H1.73327C0.662238 4.42992 0 5.1096 0 6.20508V8.22013C0 9.09972 0.376086 9.69144 1.0792 9.89135H1.12826V14.6731C1.12826 16.1844 1.99489 17 3.54011 17ZM7.21921 4.42992H5.99285C4.74195 4.42992 4.02248 3.75823 4.02248 2.88664C4.02248 2.03904 4.62749 1.51929 5.51048 1.51929C6.45069 1.51929 7.21921 2.25494 7.21921 3.38241V4.42992ZM8.78079 4.42992V3.38241C8.78079 2.25494 9.54931 1.51929 10.4895 1.51929C11.3725 1.51929 11.9775 2.03904 11.9775 2.88664C11.9775 3.75823 11.258 4.42992 10.0072 4.42992H8.78079ZM7.17016 8.55597H2.16658C1.77414 8.55597 1.61063 8.39605 1.61063 8.01223V6.41298C1.61063 6.02916 1.77414 5.86924 2.16658 5.86924H7.17016V8.55597ZM8.82984 8.55597V5.86924H13.8416C14.2259 5.86924 14.3812 6.02916 14.3812 6.41298V8.02822C14.3812 8.41204 14.2259 8.55597 13.8416 8.55597H8.82984ZM7.17016 15.5447H3.75268C3.1068 15.5447 2.74706 15.1929 2.74706 14.5691V9.9953H7.17016V15.5447ZM8.82984 15.5447V9.9953H13.2529V14.5691C13.2529 15.1929 12.8932 15.5447 12.2473 15.5447H8.82984Z" fill="#939393"/>
</svg>
