<svg width="18" height="20" viewBox="0 0 18 20" fill="none" xmlns="http://www.w3.org/2000/svg">
<path d="M12.7778 10.95H9.94444C9.425 10.95 9 11.3775 9 11.9V14.75C9 15.2725 9.425 15.7 9.94444 15.7H12.7778C13.2972 15.7 13.7222 15.2725 13.7222 14.75V11.9C13.7222 11.3775 13.2972 10.95 12.7778 10.95ZM12.7778 1.45V2.4H5.22222V1.45C5.22222 0.9275 4.79722 0.5 4.27778 0.5C3.75833 0.5 3.33333 0.9275 3.33333 1.45V2.4H2.38889C1.34056 2.4 0.509444 3.255 0.509444 4.3L0.5 17.6C0.5 18.645 1.34056 19.5 2.38889 19.5H15.6111C16.65 19.5 17.5 18.645 17.5 17.6V4.3C17.5 3.255 16.65 2.4 15.6111 2.4H14.6667V1.45C14.6667 0.9275 14.2417 0.5 13.7222 0.5C13.2028 0.5 12.7778 0.9275 12.7778 1.45ZM14.6667 17.6H3.33333C2.81389 17.6 2.38889 17.1725 2.38889 16.65V7.15H15.6111V16.65C15.6111 17.1725 15.1861 17.6 14.6667 17.6Z" fill="#8FD700"/>
</svg>
