<svg width="22" height="18" viewBox="0 0 22 18" fill="none" xmlns="http://www.w3.org/2000/svg">
<path d="M15.4214 9.5C14.2425 9.5 12.4053 9.84 11.0004 10.5C9.59546 9.83 7.75827 9.5 6.57932 9.5C4.44739 9.5 0.193359 10.58 0.193359 12.75V16C0.193359 16.5523 0.641075 17 1.19336 17H20.8074C21.3597 17 21.8074 16.5523 21.8074 16V12.75C21.8074 10.58 17.5534 9.5 15.4214 9.5ZM6.57932 8C8.47546 8 10.0179 6.43 10.0179 4.5C10.0179 2.57 8.47546 1 6.57932 1C4.68318 1 3.14073 2.57 3.14073 4.5C3.14073 6.43 4.68318 8 6.57932 8ZM15.4214 8C17.3176 8 18.86 6.43 18.86 4.5C18.86 2.57 17.3176 1 15.4214 1C13.5253 1 11.9828 2.57 11.9828 4.5C11.9828 6.43 13.5253 8 15.4214 8Z" fill="#8FD700"/>
<path d="M12.9653 15.5V12.75C12.9653 12.29 12.7688 11.89 12.4544 11.53M15.4214 9.5C14.2425 9.5 12.4053 9.84 11.0004 10.5C9.59546 9.83 7.75827 9.5 6.57932 9.5C4.44739 9.5 0.193359 10.58 0.193359 12.75V16C0.193359 16.5523 0.641075 17 1.19336 17H20.8074C21.3597 17 21.8074 16.5523 21.8074 16V12.75C21.8074 10.58 17.5534 9.5 15.4214 9.5ZM6.57932 8C8.47546 8 10.0179 6.43 10.0179 4.5C10.0179 2.57 8.47546 1 6.57932 1C4.68318 1 3.14073 2.57 3.14073 4.5C3.14073 6.43 4.68318 8 6.57932 8ZM15.4214 8C17.3176 8 18.86 6.43 18.86 4.5C18.86 2.57 17.3176 1 15.4214 1C13.5253 1 11.9828 2.57 11.9828 4.5C11.9828 6.43 13.5253 8 15.4214 8Z" stroke="#8FD700" stroke-width="0.4"/>
</svg>
