<svg width="18" height="24" viewBox="0 0 18 24" fill="none" xmlns="http://www.w3.org/2000/svg">
<path d="M7.60826 23.4632C11.3348 23.4632 13.9364 21.4744 15.3326 17.557L17.1306 12.5246C17.2612 12.1529 17.3214 11.8014 17.3214 11.4699C17.3214 10.3248 16.4676 9.48106 15.3326 9.48106C14.6094 9.48106 13.9565 9.89289 13.615 10.6764L13.0725 11.9922C13.0525 12.0324 13.0324 12.0525 12.9922 12.0525C12.942 12.0525 12.9219 12.0224 12.9219 11.9721V4.25785C12.9219 2.98218 12.0882 2.15852 10.8527 2.15852C10.471 2.15852 10.1194 2.27905 9.84821 2.51008C9.64732 1.49557 8.93415 0.872803 7.89955 0.872803C6.89509 0.872803 6.16183 1.50562 5.95089 2.48999C5.69978 2.26901 5.37835 2.15852 5.03683 2.15852C3.8817 2.15852 3.08817 2.96209 3.08817 4.1574V5.09155C2.83705 4.85048 2.47545 4.7199 2.09375 4.7199C0.938616 4.7199 0.125 5.58374 0.125 6.80919V15.6083C0.125 20.4699 3.1183 23.4632 7.60826 23.4632ZM7.55804 21.7456C3.96205 21.7456 1.76228 19.4554 1.76228 15.4275V7.00003C1.76228 6.61834 2.00335 6.35718 2.36496 6.35718C2.73661 6.35718 2.99777 6.61834 2.99777 7.00003V12.173C2.99777 12.6049 3.34933 12.9063 3.75112 12.9063C4.16295 12.9063 4.51451 12.6049 4.51451 12.173V4.40852C4.51451 4.02682 4.75558 3.76566 5.12723 3.76566C5.48884 3.76566 5.76004 4.02682 5.76004 4.40852V11.6407C5.76004 12.0726 6.10156 12.384 6.50335 12.384C6.91518 12.384 7.26674 12.0726 7.26674 11.6407V3.13285C7.26674 2.7612 7.5279 2.47995 7.88951 2.47995C8.25112 2.47995 8.51228 2.7612 8.51228 3.13285V11.5201C8.51228 11.932 8.84375 12.2534 9.25558 12.2534C9.67745 12.2534 10.019 11.932 10.019 11.5201V4.40852C10.019 4.02682 10.2701 3.76566 10.6417 3.76566C11.0033 3.76566 11.2645 4.02682 11.2645 4.40852V14.423C11.2645 15.0056 11.6362 15.3371 12.1183 15.327C12.5201 15.327 12.8817 15.1462 13.1228 14.6139L14.5692 11.3695C14.74 10.9777 15.0815 10.8572 15.3929 10.9677C15.7344 11.0982 15.8449 11.4297 15.6842 11.8616L13.8158 17.0145C12.5703 20.4297 10.471 21.7456 7.55804 21.7456Z" fill="#939393"/>
</svg>
