<svg width="40" height="42" viewBox="0 0 40 42" fill="none" xmlns="http://www.w3.org/2000/svg">
<g clip-path="url(#clip0_173_13510)">
<path d="M38.7217 19.2857V33.4821C38.7196 35.364 37.9736 37.1683 36.6475 38.499C35.3214 39.8297 33.5235 40.5782 31.6481 40.5803H20.4276C20.0524 40.5803 19.6925 40.4308 19.4272 40.1645C19.1619 39.8983 19.0129 39.5372 19.0129 39.1607C19.0129 38.7842 19.1619 38.4231 19.4272 38.1569C19.6925 37.8906 20.0524 37.7411 20.4276 37.7411H31.6481C32.7733 37.7398 33.8521 37.2906 34.6478 36.4922C35.4434 35.6938 35.891 34.6113 35.8923 33.4821V33.238C35.438 33.3997 34.9595 33.4823 34.4775 33.4821H30.6481C29.5229 33.4808 28.4441 33.0317 27.6485 32.2333C26.8528 31.4349 26.4053 30.3523 26.404 29.2232V22.125C26.4053 20.9958 26.8528 19.9133 27.6485 19.1149C28.4441 18.3165 29.5229 17.8673 30.6481 17.8661H35.8294C35.4739 13.9659 33.6712 10.3421 30.7787 7.7128C27.8862 5.0835 24.1148 3.6406 20.2121 3.67006C20.2049 3.67015 20.1983 3.67015 20.191 3.67006C16.2884 3.64073 12.5171 5.08367 9.62463 7.71295C6.73215 10.3422 4.9295 13.966 4.57393 17.8661H9.75521C10.8804 17.8673 11.9592 18.3165 12.7548 19.1149C13.5505 19.9133 13.9981 20.9958 13.9993 22.125V29.2232C13.9981 30.3523 13.5505 31.4349 12.7548 32.2333C11.9592 33.0317 10.8804 33.4808 9.75521 33.4821H5.92578C4.80056 33.4808 3.72179 33.0317 2.92614 32.2333C2.13049 31.4349 1.68293 30.3523 1.68164 29.2232V19.2857C1.68164 16.8512 2.16162 14.4408 3.09393 12.1933C4.02625 9.94582 5.39246 7.90561 7.11389 6.19023C8.83533 4.47484 10.878 3.11816 13.1241 2.19835C15.3703 1.27853 17.7756 0.813749 20.2016 0.830774C20.2447 0.830514 20.2884 0.830341 20.3316 0.830341C25.2091 0.830666 29.8867 2.77521 33.3354 6.23622C36.7842 9.69724 38.7217 14.3912 38.7217 19.2857Z" fill="#939393"/>
<path d="M36.7217 30.5455V19.2858C36.2505 18.1177 35.6159 17.7978 33.8294 17.8662H30.6481C29.5229 17.8674 28.4441 18.3166 27.6485 19.115C26.8528 19.9134 26.4053 20.9959 26.404 22.1251V29.2233C26.4053 30.3524 26.8528 31.435 27.6485 32.2334C28.4441 33.0318 29.5229 33.4809 30.6481 33.4822H32.4775C32.9595 33.4824 33.438 33.3998 33.8923 33.238C35.186 32.7773 36.1395 31.9773 36.7217 30.5455Z" fill="#8FD700"/>
<path d="M9.75521 17.8662H6.57393C4.78246 17.838 4.27774 18.2584 3.68164 19.2858V29.2233C3.68293 30.3524 4.13049 31.435 4.92614 32.2334C5.72179 33.0318 6.80056 33.4809 7.92578 33.4822H9.75521C10.8804 33.4809 11.9592 33.0318 12.7548 32.2334C13.5505 31.435 13.9981 30.3524 13.9993 29.2233V22.1251C13.9981 20.9959 13.5505 19.9134 12.7548 19.115C11.9592 18.3166 10.8804 17.8674 9.75521 17.8662Z" fill="#8FD700"/>
<path d="M19.0234 37C19.0234 35.8954 19.9189 35 21.0234 35H23.0234C24.128 35 25.0234 35.8954 25.0234 37V39H19.0234V37Z" fill="#939393"/>
<path d="M10 22C10 21.4477 10.4477 21 11 21C11.5523 21 12 21.4477 12 22V25.5V29C12 29.5523 11.5523 30 11 30C10.4477 30 10 29.5523 10 29V22Z" fill="#939393"/>
<path d="M28.5 22C28.5 21.4477 28.9477 21 29.5 21C30.0523 21 30.5 21.4477 30.5 22V29C30.5 29.5523 30.0523 30 29.5 30C28.9477 30 28.5 29.5523 28.5 29V22Z" fill="#939393"/>
</g>
<defs>
<clipPath id="clip0_173_13510">
<rect width="40" height="42" fill="white"/>
</clipPath>
</defs>
</svg>
