<svg width="18" height="22" viewBox="0 0 18 22" fill="none" xmlns="http://www.w3.org/2000/svg">
<path d="M2.12312 18.5C1.58276 18.5 1.12019 18.3042 0.735396 17.9125C0.350601 17.5208 0.158203 17.05 0.158203 16.5V9.5C0.158203 8.26667 0.391536 7.10417 0.858203 6.0125C1.32487 4.92083 1.95937 3.96667 2.76171 3.15C3.56405 2.33333 4.50148 1.6875 5.57399 1.2125C6.64651 0.7375 7.78861 0.5 9.00031 0.5C10.212 0.5 11.3541 0.7375 12.4266 1.2125C13.4991 1.6875 14.4366 2.33333 15.2389 3.15C16.0412 3.96667 16.6757 4.92083 17.1424 6.0125C17.6091 7.10417 17.8424 8.26667 17.8424 9.5V19.5C17.8424 20.05 17.65 20.5208 17.2652 20.9125C16.8804 21.3042 16.4179 21.5 15.8775 21.5H9.98276C9.7044 21.5 9.47107 21.4042 9.28276 21.2125C9.09446 21.0208 9.00031 20.7833 9.00031 20.5C9.00031 20.2167 9.09446 19.9792 9.28276 19.7875C9.47107 19.5958 9.7044 19.5 9.98276 19.5H15.8775V18.5H13.9126C13.3722 18.5 12.9097 18.3042 12.5249 17.9125C12.1401 17.5208 11.9477 17.05 11.9477 16.5V12.5C11.9477 11.95 12.1401 11.4792 12.5249 11.0875C12.9097 10.6958 13.3722 10.5 13.9126 10.5H15.8775V9.5C15.8775 7.56667 15.2062 5.91667 13.8635 4.55C12.5208 3.18333 10.8997 2.5 9.00031 2.5C7.10089 2.5 5.47984 3.18333 4.13715 4.55C2.79446 5.91667 2.12312 7.56667 2.12312 9.5V10.5H4.08803C4.62838 10.5 5.09095 10.6958 5.47575 11.0875C5.86054 11.4792 6.05294 11.95 6.05294 12.5V16.5C6.05294 17.05 5.86054 17.5208 5.47575 17.9125C5.09095 18.3042 4.62838 18.5 4.08803 18.5H2.12312ZM2.12312 16.5H4.08803V12.5H2.12312V16.5ZM13.9126 16.5H15.8775V12.5H13.9126V16.5Z" fill="#939393"/>
</svg>
