<svg width="48" height="48" viewBox="0 0 48 48" fill="none" xmlns="http://www.w3.org/2000/svg">
<path d="M24 0C37.254 0 48 10.746 48 24C48 37.254 37.254 48 24 48C10.746 48 0 37.2555 0 24C0 10.7445 10.746 0 24 0ZM24 11C23.325 11 22.7252 11.1985 22.2002 11.5947L13.2002 18.2803C12.8252 18.5527 12.5309 18.8994 12.3184 19.3203C12.106 19.7411 12 20.1869 12 20.6572V33.0283C12 33.8453 12.2936 34.5451 12.8809 35.127C13.4684 35.7089 14.175 36 15 36H18.5C18.9248 36 19.2809 35.8577 19.5684 35.5732C19.8558 35.2886 19.9999 34.9354 20 34.5146V27.0859C20 26.665 20.1441 26.3121 20.4316 26.0273C20.7191 25.7426 21.075 25.5996 21.5 25.5996H26.5C26.925 25.5996 27.2809 25.7426 27.5684 26.0273C27.8559 26.3121 28 26.665 28 27.0859V34.5146C28.0001 34.9354 28.1442 35.2886 28.4316 35.5732C28.7191 35.8577 29.0752 36 29.5 36H33C33.825 36 34.5316 35.7089 35.1191 35.127C35.7064 34.5451 36 33.8453 36 33.0283V20.6572C36 20.1869 35.894 19.7411 35.6816 19.3203C35.4691 18.8994 35.1748 18.5527 34.7998 18.2803L25.7998 11.5947C25.2748 11.1985 24.675 11 24 11Z" fill="#8FD700"/>
</svg>
