<svg width="20" height="20" viewBox="0 0 20 20" fill="none" xmlns="http://www.w3.org/2000/svg">
<path d="M9.39711 0.210694C9.56958 0.0741393 9.78184 0 10.0003 0C10.2188 0 10.4311 0.0741393 10.6036 0.210694L18.6872 6.61069C19.0417 6.89139 19.3285 7.25084 19.5257 7.66159C19.7229 8.07235 19.8252 8.52353 19.8249 8.98069V18.0007C19.8249 18.5311 19.6179 19.0398 19.2494 19.4149C18.8809 19.79 18.3811 20.0007 17.86 20.0007H13.9302C13.409 20.0007 12.9093 19.79 12.5408 19.4149C12.1723 19.0398 11.9653 18.5311 11.9653 18.0007V13.0007H8.03543V18.0007C8.03543 18.5311 7.82841 19.0398 7.45992 19.4149C7.09143 19.79 6.59164 20.0007 6.07052 20.0007H2.14069C1.61957 20.0007 1.11978 19.79 0.751291 19.4149C0.382798 19.0398 0.175781 18.5311 0.175781 18.0007V8.98069C0.175781 8.05269 0.596273 7.18069 1.31543 6.61069L9.39711 0.210694ZM10.0003 2.26669L2.51992 8.18869C2.40149 8.28247 2.30573 8.4026 2.24 8.53989C2.17426 8.67718 2.14029 8.82797 2.14069 8.98069V18.0007H6.07052V13.0007C6.07052 12.4703 6.27753 11.9616 6.64603 11.5865C7.01452 11.2114 7.5143 11.0007 8.03543 11.0007H11.9653C12.4864 11.0007 12.9862 11.2114 13.3547 11.5865C13.7231 11.9616 13.9302 12.4703 13.9302 13.0007V18.0007H17.86V8.98069C17.8604 8.82797 17.8264 8.67718 17.7607 8.53989C17.695 8.4026 17.5992 8.28247 17.4808 8.18869L10.0003 2.26869V2.26669Z" fill="#939393"/>
</svg>
