<svg width="20" height="17" viewBox="0 0 20 17" fill="none" xmlns="http://www.w3.org/2000/svg">
<path d="M0 8.02651C0 8.43945 0.327065 8.7968 0.850368 8.7968C1.10384 8.7968 1.33279 8.6618 1.5372 8.50298L2.46934 7.74063V15.1259C2.46934 16.3012 3.19706 17 4.44808 17H15.511C16.7539 17 17.4898 16.3012 17.4898 15.1259V7.70092L18.471 8.50298C18.6672 8.6618 18.8962 8.7968 19.1496 8.7968C19.6321 8.7968 20 8.50298 20 8.04239C20 7.77239 19.8937 7.55798 19.6811 7.38328L17.4898 5.58858V2.20565C17.4898 1.8483 17.2527 1.62595 16.8847 1.62595H15.7563C15.3966 1.62595 15.1513 1.8483 15.1513 2.20565V3.6827L11.1693 0.434778C10.4579 -0.144926 9.55846 -0.144926 8.8471 0.434778L0.327065 7.38328C0.106296 7.55798 0 7.79622 0 8.02651ZM12.3549 10.2183C12.3549 9.84503 12.1096 9.6068 11.7253 9.6068H8.29109C7.90679 9.6068 7.65331 9.84503 7.65331 10.2183V15.4197H4.88144C4.37449 15.4197 4.09648 15.1418 4.09648 14.6415V6.41446L9.64841 1.88801C9.87735 1.69742 10.139 1.69742 10.3679 1.88801L15.8545 6.36681V14.6415C15.8545 15.1418 15.5765 15.4197 15.0695 15.4197H12.3549V10.2183Z" fill="#939393"/>
</svg>
