<svg width="20" height="20" viewBox="0 0 20 20" fill="none" xmlns="http://www.w3.org/2000/svg">
<path d="M12.938 16.125L17.888 11.175C18.0713 10.9917 18.3047 10.9 18.588 10.9C18.8713 10.9 19.1047 10.9917 19.288 11.175C19.4713 11.3583 19.563 11.5917 19.563 11.875C19.563 12.1583 19.4713 12.3917 19.288 12.575L13.638 18.225C13.438 18.425 13.2047 18.525 12.938 18.525C12.6713 18.525 12.438 18.425 12.238 18.225L9.38799 15.375C9.20465 15.1917 9.11299 14.9583 9.11299 14.675C9.11299 14.3917 9.20465 14.1583 9.38799 13.975C9.57132 13.7917 9.80466 13.7 10.088 13.7C10.3713 13.7 10.6047 13.7917 10.788 13.975L12.938 16.125ZM2.43799 20C1.88799 20 1.41716 19.8042 1.02549 19.4125C0.633822 19.0208 0.437988 18.55 0.437988 18V4C0.437988 3.45 0.633822 2.97917 1.02549 2.5875C1.41716 2.19583 1.88799 2 2.43799 2H6.61299C6.79632 1.41667 7.15465 0.9375 7.68799 0.5625C8.22132 0.1875 8.80466 0 9.43799 0C10.1047 0 10.7005 0.1875 11.2255 0.5625C11.7505 0.9375 12.1047 1.41667 12.288 2H16.438C16.988 2 17.4588 2.19583 17.8505 2.5875C18.2422 2.97917 18.438 3.45 18.438 4V8C18.438 8.28333 18.3422 8.52083 18.1505 8.7125C17.9588 8.90417 17.7213 9 17.438 9C17.1547 9 16.9172 8.90417 16.7255 8.7125C16.5338 8.52083 16.438 8.28333 16.438 8V4H14.438V6C14.438 6.28333 14.3422 6.52083 14.1505 6.7125C13.9588 6.90417 13.7213 7 13.438 7H5.43799C5.15465 7 4.91715 6.90417 4.72549 6.7125C4.53382 6.52083 4.43799 6.28333 4.43799 6V4H2.43799V18H7.43799C7.72132 18 7.95882 18.0958 8.15049 18.2875C8.34215 18.4792 8.43799 18.7167 8.43799 19C8.43799 19.2833 8.34215 19.5208 8.15049 19.7125C7.95882 19.9042 7.72132 20 7.43799 20H2.43799ZM9.43799 4C9.72132 4 9.95882 3.90417 10.1505 3.7125C10.3422 3.52083 10.438 3.28333 10.438 3C10.438 2.71667 10.3422 2.47917 10.1505 2.2875C9.95882 2.09583 9.72132 2 9.43799 2C9.15465 2 8.91716 2.09583 8.72549 2.2875C8.53382 2.47917 8.43799 2.71667 8.43799 3C8.43799 3.28333 8.53382 3.52083 8.72549 3.7125C8.91716 3.90417 9.15465 4 9.43799 4Z" fill="#939393"/>
</svg>
