<svg width="16" height="22" viewBox="0 0 16 22" fill="none" xmlns="http://www.w3.org/2000/svg">
<path d="M8 22C7.52435 22 7.1038 21.8738 6.73837 21.6215C6.37294 21.369 6.11733 21.0379 5.97156 20.6282H5.62963C5.14489 20.6282 4.72741 20.4519 4.37719 20.0994C4.02696 19.7469 3.85185 19.3267 3.85185 18.8388V14.9251C2.656 14.1957 1.71506 13.2177 1.02904 11.9912C0.343012 10.7645 0 9.45145 0 8.05216C0 5.8071 0.775704 3.90381 2.32711 2.34228C3.87852 0.780761 5.76948 0 8 0C10.2305 0 12.1215 0.780761 13.6729 2.34228C15.2243 3.90381 16 5.8071 16 8.05216C16 9.4759 15.657 10.795 14.971 12.0094C14.2849 13.2237 13.344 14.1957 12.1481 14.9251V18.8388C12.1481 19.3267 11.973 19.7469 11.6228 20.0994C11.2726 20.4519 10.8551 20.6282 10.3704 20.6282H10.0284C9.88267 21.0379 9.62706 21.369 9.26163 21.6215C8.8962 21.8738 8.47565 22 8 22ZM5.5 17.4402C5.5 18.0255 5.97448 18.5 6.55977 18.5H9.54763C10.1329 18.5 10.6074 18.0255 10.6074 17.4402C10.6074 16.8549 10.1329 16.3805 9.54763 16.3805H6.55977C5.97448 16.3805 5.5 16.8549 5.5 17.4402ZM5.39259 13.7185H7V10.5L4.73734 8.1203C4.40688 7.77274 4.40679 7.22717 4.73714 6.87951C5.09314 6.50484 5.69077 6.50604 6.04526 6.88215L8 8.95609L9.95474 6.88215C10.3092 6.50604 10.9069 6.50484 11.2629 6.87951C11.5932 7.22717 11.5931 7.77274 11.2627 8.1203L9 10.5V13.7185H10.6074C11.6741 13.2016 12.5432 12.4411 13.2148 11.4371C13.8864 10.433 14.2222 9.30472 14.2222 8.05216C14.2222 6.30256 13.6198 4.82136 12.4148 3.60856C11.2099 2.39577 9.73827 1.78937 8 1.78937C6.26173 1.78937 4.79012 2.39577 3.58519 3.60856C2.38025 4.82136 1.77778 6.30256 1.77778 8.05216C1.77778 9.30472 2.11358 10.433 2.78519 11.4371C3.45679 12.4411 4.32593 13.2016 5.39259 13.7185Z" fill="#939393"/>
</svg>
