<svg width="44" height="44" viewBox="0 0 44 44" fill="none" xmlns="http://www.w3.org/2000/svg">
<path d="M27.8606 35.3213C27.8606 32.3854 29.8334 29.8343 31.7825 27.544C33.3846 25.6614 34.3417 23.2783 34.3417 20.6865C34.3417 14.5959 29.0565 9.65845 22.5368 9.65845C16.0172 9.65845 10.7319 14.5959 10.7319 20.6865C10.7319 23.2783 11.6891 25.6614 13.2911 27.544C15.2402 29.8343 17.213 32.3854 17.213 35.3213V35.5295C17.213 37.2441 18.688 38.6341 20.5074 38.6341H24.5662C26.3856 38.6341 27.8606 37.2441 27.8606 35.5295V35.3213Z" fill="#8FD700" stroke="#939393" stroke-width="2"/>
<path d="M22.3687 14.3984C18.8125 14.3984 15.9297 17.7617 15.9297 21.9106" stroke="white" stroke-width="2" stroke-linecap="round"/>
<path d="M19.3169 38.634V40.5121C19.3169 41.8457 20.7583 42.9267 22.5364 42.9267C24.3145 42.9267 25.7559 41.8457 25.7559 40.5121V38.634" fill="#939393"/>
<path d="M19.3169 38.634V40.5121C19.3169 41.8457 20.7583 42.9267 22.5364 42.9267C24.3145 42.9267 25.7559 41.8457 25.7559 40.5121V38.634H19.3169Z" stroke="#939393" stroke-width="2"/>
<path d="M38.8442 23.6098C38.2414 23.6098 37.7688 23.0806 37.7688 22.4581C37.7688 21.8355 38.2414 21.3064 38.8442 21.3064H41.8461C42.4834 21.3064 43.0001 21.822 43.0001 22.4581C43.0001 23.0941 42.4834 23.6098 41.8461 23.6098H38.8442ZM6.22914 21.3064C6.8319 21.3064 7.30455 21.8355 7.30455 22.4581C7.30455 23.0806 6.8319 23.6098 6.22914 23.6098H3.22719C2.58988 23.6098 2.07324 23.0941 2.07324 22.4581C2.07324 21.822 2.58988 21.3064 3.22719 21.3064H6.22914ZM37.943 14.5243C37.4155 14.8602 36.7246 14.6505 36.4147 14.0961C36.0991 13.5314 36.2492 12.7974 36.7865 12.4552L39.5859 10.6725C40.1391 10.3426 40.8463 10.5384 41.1657 11.1098C41.4851 11.6811 41.2956 12.4117 40.7424 12.7416L37.943 14.5243ZM32.1922 7.33394C31.8794 7.89361 31.174 8.05876 30.6323 7.73565C30.0904 7.41254 29.8763 6.69901 30.1891 6.13934L31.7124 3.41403C32.0317 2.84267 32.7391 2.64694 33.2922 2.97679C33.8454 3.30669 34.0349 4.03727 33.7155 4.60862L32.1922 7.33394ZM23.9304 4.31799C23.9304 5.09896 23.2928 5.71477 22.5367 5.71477C21.7805 5.71477 21.1429 5.09896 21.1429 4.31799V1.24233C21.1429 0.556217 21.7669 0 22.5367 0C23.3064 0 23.9304 0.556217 23.9304 1.24233V4.31799ZM14.8844 6.13923C15.1972 6.69889 14.983 7.41243 14.4412 7.73554C13.8994 8.05864 13.1941 7.89343 12.8813 7.33382L11.358 4.60851C11.0386 4.03715 11.2281 3.30652 11.7813 2.97667C12.3344 2.64677 13.0417 2.84256 13.3611 3.41391L14.8844 6.13923ZM8.2869 12.455C8.82427 12.7972 8.97434 13.5312 8.65869 14.0959C8.34878 14.6503 7.65794 14.86 7.13038 14.524L4.33094 12.7413C3.7778 12.4114 3.58825 11.6808 3.90764 11.1094C4.22697 10.5381 4.93431 10.3423 5.48746 10.6722L8.2869 12.455Z" fill="#939393"/>
</svg>
