<svg width="23" height="20" viewBox="0 0 23 20" fill="none" xmlns="http://www.w3.org/2000/svg">
<path fill-rule="evenodd" clip-rule="evenodd" d="M17.6631 19.38H8.67306C7.57306 19.38 6.67307 18.48 6.67307 17.38V7.39C6.67307 6.86 6.88306 6.35 7.25306 5.98L12.7831 0.439999C13.0731 0.149998 13.4631 0 13.8431 0C14.2231 0 14.6031 0.139997 14.8931 0.429998C15.2531 0.789999 15.4031 1.3 15.3031 1.8L14.3531 6.38H20.0031C22.1531 6.38 23.6031 8.58 22.7531 10.56L19.4931 18.17C19.1831 18.9 18.4631 19.38 17.6631 19.38ZM12.3931 5.97L13.0031 3.05L8.67306 7.39V17.38H17.6631L20.9131 9.78C21.1031 9.34 20.9431 9 20.8331 8.83C20.7231 8.66 20.4731 8.38 20.0031 8.38H11.8931L12.3931 5.97Z" fill="#939393"/>
<path d="M4.66309 17.38C4.66309 18.48 3.76309 19.38 2.66309 19.38C1.56309 19.38 0.663086 18.48 0.663086 17.38V9.38C0.663086 8.28 1.56309 7.38 2.66309 7.38C3.76309 7.38 4.66309 8.28 4.66309 9.38V17.38Z" fill="#939393"/>
</svg>
