<svg width="20" height="19" viewBox="0 0 20 19" fill="none" xmlns="http://www.w3.org/2000/svg">
<path d="M4 16L1.7 18.3C1.38333 18.6167 1.02083 18.6875 0.6125 18.5125C0.204167 18.3375 0 18.025 0 17.575V2C0 1.45 0.195833 0.979167 0.5875 0.5875C0.979167 0.195833 1.45 0 2 0H11C11.2833 0 11.5208 0.0958335 11.7125 0.2875C11.9042 0.479167 12 0.716667 12 1C12 1.28333 11.9042 1.52083 11.7125 1.7125C11.5208 1.90417 11.2833 2 11 2H2V15.125L3.15 14H18V7C18 6.71667 18.0958 6.47917 18.2875 6.2875C18.4792 6.09583 18.7167 6 19 6C19.2833 6 19.5208 6.09583 19.7125 6.2875C19.9042 6.47917 20 6.71667 20 7V14C20 14.55 19.8042 15.0208 19.4125 15.4125C19.0208 15.8042 18.55 16 18 16H11H4Z" fill="#939393"/>
</svg>
