<svg width="18" height="17" viewBox="0 0 18 17" fill="none" xmlns="http://www.w3.org/2000/svg">
<path d="M3.68164 16.9001C4.72879 16.9001 6.8457 15.8831 8.4428 14.7455C13.7614 14.8435 17.7391 11.7698 17.7391 7.73186C17.7391 3.83705 13.8443 0.703125 8.99275 0.703125C4.14118 0.703125 0.253906 3.83705 0.253906 7.73186C0.253906 10.2104 1.79074 12.4177 4.14872 13.5703C3.82478 14.1805 3.25223 15.0167 2.92829 15.4537C2.44615 16.094 2.77762 16.9001 3.68164 16.9001ZM4.59319 15.3407C4.49526 15.3783 4.45759 15.3256 4.52539 15.2427C4.9096 14.7757 5.47461 14.0299 5.75335 13.5025C5.97935 13.0882 5.90402 12.7266 5.42188 12.5006C3.12416 11.4233 1.79074 9.6981 1.79074 7.73186C1.79074 4.7034 4.98493 2.23996 8.99275 2.23996C13.0006 2.23996 16.1948 4.7034 16.1948 7.73186C16.1948 10.7603 13.0006 13.2313 8.99275 13.2313C8.85714 13.2313 8.64621 13.2238 8.39007 13.2238C8.06613 13.2162 7.82506 13.3142 7.52372 13.5477C6.61217 14.2257 5.26367 15.0695 4.59319 15.3407Z" fill="white"/>
</svg>
