<svg width="18" height="18" viewBox="0 0 18 18" fill="none" xmlns="http://www.w3.org/2000/svg">
<path fill-rule="evenodd" clip-rule="evenodd" d="M2.12312 0H15.8775C16.9582 0 17.8424 0.9 17.8424 2V16C17.8424 17.1 16.9582 18 15.8775 18H2.12312C1.04241 18 0.158203 17.1 0.158203 16V2C0.158203 0.9 1.04241 0 2.12312 0ZM5.07048 7.5C4.52789 7.5 4.08803 7.05228 4.08803 6.5C4.08803 5.94772 4.52789 5.5 5.07048 5.5C5.61308 5.5 6.05294 5.94772 6.05294 6.5C6.05294 7.05228 5.61308 7.5 5.07048 7.5ZM5.07048 12.5C4.52789 12.5 4.08803 12.0523 4.08803 11.5C4.08803 10.9477 4.52789 10.5 5.07048 10.5C5.61308 10.5 6.05294 10.9477 6.05294 11.5C6.05294 12.0523 5.61308 12.5 5.07048 12.5ZM12.9301 5.5H8.50908C7.96648 5.5 7.52662 5.94772 7.52662 6.5C7.52662 7.05228 7.96648 7.5 8.50908 7.5H12.9301C13.4727 7.5 13.9126 7.05228 13.9126 6.5C13.9126 5.94772 13.4727 5.5 12.9301 5.5ZM8.50908 10.5H12.9301C13.4727 10.5 13.9126 10.9477 13.9126 11.5C13.9126 12.0523 13.4727 12.5 12.9301 12.5H8.50908C7.96648 12.5 7.52662 12.0523 7.52662 11.5C7.52662 10.9477 7.96648 10.5 8.50908 10.5Z" fill="#8FD700"/>
</svg>
