<svg width="16" height="20" viewBox="0 0 16 20" fill="none" xmlns="http://www.w3.org/2000/svg">
<path fill-rule="evenodd" clip-rule="evenodd" d="M2.10554 0H9.55824C9.8188 0 10.0687 0.105357 10.2529 0.292893L15.5722 5.70711C15.7564 5.89464 15.8599 6.149 15.8599 6.41421V18C15.8599 19.1 14.9757 20 13.895 20H2.09571C1.01501 20 0.140625 19.1 0.140625 18V2C0.140625 0.9 1.02484 0 2.10554 0ZM4.07045 15C4.07045 14.4477 4.51031 14 5.05291 14H10.9476C11.4902 14 11.9301 14.4477 11.9301 15C11.9301 15.5523 11.4902 16 10.9476 16H5.05291C4.51031 16 4.07045 15.5523 4.07045 15ZM4.07045 11C4.07045 10.4477 4.51031 10 5.05291 10H10.9476C11.4902 10 11.9301 10.4477 11.9301 11C11.9301 11.5523 11.4902 12 10.9476 12H5.05291C4.51031 12 4.07045 11.5523 4.07045 11ZM13.895 7L8.98273 2V6C8.98273 6.55228 9.42259 7 9.96519 7H13.895Z" fill="#8FD700"/>
</svg>
