<svg width="22" height="18" viewBox="0 0 22 18" fill="none" xmlns="http://www.w3.org/2000/svg">
<path d="M15.4214 9.5C14.2425 9.5 12.4053 9.84 11.0004 10.5C9.59546 9.83 7.75827 9.5 6.57932 9.5C4.44739 9.5 0.193359 10.58 0.193359 12.75V16C0.193359 16.5523 0.641075 17 1.19336 17H20.8074C21.3597 17 21.8074 16.5523 21.8074 16V12.75C21.8074 10.58 17.5534 9.5 15.4214 9.5ZM11.4916 15.5H1.66704V12.75C1.66704 12.21 4.18213 11 6.57932 11C8.97652 11 11.4916 12.21 11.4916 12.75V15.5ZM20.3337 15.5H12.9653V12.75C12.9653 12.29 12.7688 11.89 12.4544 11.53C13.319 11.23 14.38 11 15.4214 11C17.8186 11 20.3337 12.21 20.3337 12.75V15.5ZM6.57932 8C8.47546 8 10.0179 6.43 10.0179 4.5C10.0179 2.57 8.47546 1 6.57932 1C4.68318 1 3.14073 2.57 3.14073 4.5C3.14073 6.43 4.68318 8 6.57932 8ZM6.57932 2.5C7.66003 2.5 8.54424 3.4 8.54424 4.5C8.54424 5.6 7.66003 6.5 6.57932 6.5C5.49862 6.5 4.61441 5.6 4.61441 4.5C4.61441 3.4 5.49862 2.5 6.57932 2.5ZM15.4214 8C17.3176 8 18.86 6.43 18.86 4.5C18.86 2.57 17.3176 1 15.4214 1C13.5253 1 11.9828 2.57 11.9828 4.5C11.9828 6.43 13.5253 8 15.4214 8ZM15.4214 2.5C16.5021 2.5 17.3863 3.4 17.3863 4.5C17.3863 5.6 16.5021 6.5 15.4214 6.5C14.3407 6.5 13.4565 5.6 13.4565 4.5C13.4565 3.4 14.3407 2.5 15.4214 2.5Z" fill="#939393" stroke="#939393" stroke-width="0.4"/>
</svg>
