<svg width="19" height="19" viewBox="0 0 19 19" fill="none" xmlns="http://www.w3.org/2000/svg">
<path d="M10.7755 2.4928L5.82571 7.44255H3.42155C3.28013 7.44255 3.14755 7.46907 3.0238 7.5221C2.90006 7.57513 2.79105 7.64879 2.69677 7.74307L2.29018 8.14966C2.08983 8.35001 1.98966 8.58571 1.98966 8.85676C1.98966 9.12782 2.08983 9.36352 2.29018 9.56387L5.11861 12.3923L0.982032 16.5289C0.781685 16.7292 0.681512 16.9649 0.681512 17.236C0.681511 17.507 0.781685 17.7427 0.982032 17.9431C1.18238 18.1434 1.41808 18.2436 1.68914 18.2436C1.9602 18.2436 2.1959 18.1434 2.39625 17.9431L6.53282 13.8065L9.36125 16.6349C9.56159 16.8353 9.7973 16.9355 10.0684 16.9355C10.3394 16.9355 10.5751 16.8353 10.7755 16.6349L11.182 16.2284C11.2763 16.1341 11.35 16.0251 11.403 15.9013C11.4561 15.7776 11.4826 15.645 11.4826 15.5036L11.4826 13.0994L16.4323 8.14966C16.6327 8.35001 16.8684 8.45018 17.1394 8.45018C17.4105 8.45018 17.6462 8.35001 17.8465 8.14966C18.0469 7.94931 18.147 7.71361 18.147 7.44255C18.147 7.17149 18.0469 6.93579 17.8465 6.73544L12.1897 1.07859C11.9893 0.878243 11.7536 0.77807 11.4826 0.77807C11.2115 0.77807 10.9758 0.878244 10.7755 1.07859C10.5751 1.27894 10.4749 1.51464 10.4749 1.7857C10.4749 2.05675 10.5751 2.29246 10.7755 2.4928ZM9.46731 13.9126L5.01254 9.45781L6.63889 9.45781L12.1897 3.90702L15.0181 6.73544L9.46731 12.2862L9.46731 13.9126Z" fill="#939393"/>
</svg>
