<svg width="20" height="20" viewBox="0 0 20 20" fill="none" xmlns="http://www.w3.org/2000/svg">
<path d="M9.12046 16.105C10.9958 16.105 12.5962 15.4457 13.9219 14.1273C15.2475 12.8089 15.9103 11.2033 15.9103 9.31058C15.9103 7.43404 15.2475 5.83251 13.9219 4.50599C12.5962 3.17946 10.9958 2.5162 9.12046 2.5162C7.229 2.5162 5.62448 3.17946 4.30693 4.50599C2.98937 5.83251 2.33059 7.43404 2.33059 9.31058C2.33059 11.2033 2.98937 12.8089 4.30693 14.1273C5.62448 15.4457 7.229 16.105 9.12046 16.105ZM9.12046 18.0462C7.90798 18.0462 6.7723 17.8157 5.7134 17.3546C4.6545 16.8936 3.73302 16.2708 2.94895 15.4862C2.16488 14.7016 1.54248 13.7795 1.08174 12.7199C0.620996 11.6603 0.390625 10.5239 0.390625 9.31058C0.390625 8.11348 0.620996 6.98513 1.08174 5.92553C1.54248 4.86593 2.16488 3.93979 2.94895 3.14711C3.73302 2.35443 4.6545 1.72757 5.7134 1.26652C6.7723 0.805475 7.90798 0.574951 9.12046 0.574951C10.3168 0.574951 11.4444 0.805475 12.5033 1.26652C13.5622 1.72757 14.4877 2.35443 15.2798 3.14711C16.072 3.93979 16.6984 4.86593 17.1592 5.92553C17.6199 6.98513 17.8503 8.11348 17.8503 9.31058C17.8503 10.3459 17.6805 11.3246 17.3411 12.2467C17.0016 13.1688 16.5327 14.01 15.9346 14.7704L19.1113 17.9492C19.3053 18.1433 19.3982 18.3698 19.3901 18.6286C19.3821 18.8874 19.281 19.1139 19.087 19.308C18.893 19.486 18.6667 19.575 18.408 19.575C18.1494 19.575 17.923 19.486 17.729 19.308L14.5524 16.1535C13.7925 16.752 12.9519 17.2171 12.0304 17.5488C11.1089 17.8804 10.1389 18.0462 9.12046 18.0462Z" fill="#939393"/>
</svg>
