<svg width="21" height="18" viewBox="0 0 21 18" fill="none" xmlns="http://www.w3.org/2000/svg">
<path d="M20.6926 8.29298L12.2925 0.292794C12.1456 0.152981 11.9586 0.0577724 11.7549 0.0192039C11.5513 -0.0193645 11.3402 0.000438958 11.1483 0.0761108C10.9565 0.151783 10.7925 0.279925 10.6771 0.444339C10.5618 0.608753 10.5002 0.802056 10.5001 0.999811V4.54489C7.63179 4.79769 4.96574 6.06079 3.02371 8.08701C1.08167 10.1132 0.00343536 12.7567 0 15.5002V17.0002C0.00016575 17.2078 0.0681559 17.4102 0.19454 17.5793C0.320924 17.7484 0.499437 17.8759 0.705319 17.944C0.911202 18.0122 1.13425 18.0176 1.34352 17.9596C1.55279 17.9016 1.73792 17.783 1.87322 17.6202C2.90191 16.4551 4.16409 15.497 5.586 14.8018C7.00791 14.1065 8.56094 13.2788 10.1545 13.1617C10.207 13.1557 10.3383 13.1457 10.5 13.1357L10.5001 17.0002C10.5002 17.1979 10.5618 17.3912 10.6771 17.5557C10.7925 17.7201 10.9565 17.8482 11.1483 17.9239C11.3402 17.9996 11.5513 18.0194 11.7549 17.9808C11.9586 17.9422 12.1456 17.847 12.2925 17.7072L20.6926 9.70702C20.8894 9.51948 21 9.26517 21 9C21 8.73483 20.8894 8.48052 20.6926 8.29298ZM12.6001 14.5861L12.6 12.0907C12.6 11.8254 12.4894 11.5711 12.2925 11.3835C12.0956 11.196 11.8285 11.0906 11.55 11.0906C11.2823 11.0906 10.1892 11.1406 9.90989 11.1756C7.07997 11.424 4.38634 12.8574 2.15462 14.5331C2.40793 12.3275 3.50655 10.2884 5.24014 8.80616C6.97372 7.32393 9.22044 6.50279 11.5501 6.49994C11.8286 6.49994 12.0957 6.39458 12.2926 6.20704C12.4895 6.0195 12.6001 5.76514 12.6001 5.49992V3.41387L18.4655 9L12.6001 14.5861Z" fill="#939393"/>
</svg>
