<svg width="18" height="18" viewBox="0 0 18 18" fill="none" xmlns="http://www.w3.org/2000/svg">
<path d="M9 12.375C10.3078 12.375 11.2219 11.7598 11.7562 11.1832C12.0691 10.8422 12.6035 10.8176 12.948 11.134C13.2891 11.4504 13.3102 11.9848 12.9938 12.3258C12.2238 13.166 10.8879 14.0625 9 14.0625C7.11211 14.0625 5.77617 13.166 5.00625 12.3258C4.68984 11.9848 4.6793 11.4504 5.05195 11.134C5.39648 10.8176 5.93086 10.8422 6.24375 11.1832C6.77813 11.7598 7.69219 12.375 9 12.375ZM7.32656 7.3125C7.32656 7.93477 6.82031 8.4375 6.20156 8.4375C5.5793 8.4375 5.07656 7.93477 5.07656 7.3125C5.07656 6.69023 5.5793 6.1875 6.20156 6.1875C6.82031 6.1875 7.32656 6.69023 7.32656 7.3125ZM10.7016 7.3125C10.7016 6.69023 11.2043 6.1875 11.8266 6.1875C12.4453 6.1875 12.9516 6.69023 12.9516 7.3125C12.9516 7.93477 12.4453 8.4375 11.8266 8.4375C11.2043 8.4375 10.7016 7.93477 10.7016 7.3125ZM18 9C18 13.9711 13.9711 18 9 18C4.02891 18 0 13.9711 0 9C0 4.02891 4.02891 0 9 0C13.9711 0 18 4.02891 18 9ZM9 1.6875C4.96055 1.6875 1.6875 4.96055 1.6875 9C1.6875 13.0395 4.96055 16.3125 9 16.3125C13.0395 16.3125 16.3125 13.0395 16.3125 9C16.3125 4.96055 13.0395 1.6875 9 1.6875Z" fill="#939393"/>
</svg>
