<svg width="43" height="33" viewBox="0 0 43 33" fill="none" xmlns="http://www.w3.org/2000/svg">
<path fill-rule="evenodd" clip-rule="evenodd" d="M42.8944 10.5406H22.7111C22.668 10.5406 22.6333 10.553 22.6111 10.5709C22.6069 10.5737 22.6069 10.5709 22.6069 10.5709V16.0461C22.6069 16.1483 22.7653 16.2683 23.0403 16.4008C23.0972 16.4174 23.1514 16.4409 23.2014 16.474C23.6361 16.6617 24.2778 16.8673 25.0222 17.0799C27.7569 17.8542 31.6625 18.391 32.8694 18.5235C34.0764 18.3897 37.9444 17.879 40.6305 17.1102C41.3805 16.8949 42.0264 16.6796 42.4528 16.4836C42.4653 16.4767 42.4805 16.4698 42.4944 16.4643C42.8125 16.3125 43 16.1717 43 16.0489V10.5737C43 10.5737 42.9972 10.5751 42.9944 10.5737C42.9722 10.5544 42.9375 10.5433 42.8944 10.5433V10.5406ZM42.1264 17.8749C41.7694 18.0129 41.3792 18.1412 40.9653 18.2599C38.1375 19.0715 34.0875 19.5987 32.9333 19.7229C32.8861 19.7271 32.8375 19.7271 32.793 19.7202C31.6208 19.5932 27.5389 19.0397 24.693 18.2323C24.2597 18.1095 23.8514 17.977 23.4792 17.8348V23.9863C23.4792 24.2085 23.5708 24.41 23.718 24.5563C23.8667 24.704 24.0694 24.7951 24.2917 24.7951H41.3111C41.5347 24.7951 41.7389 24.704 41.8861 24.5563C42.0333 24.41 42.125 24.2071 42.125 23.9863V17.8735L42.1264 17.8749ZM26.6125 9.3398V8.53792C26.6125 8.11696 26.7861 7.73327 27.0639 7.45585C27.3417 7.17844 27.7278 7.00591 28.1514 7.00591H37.1083C37.5319 7.00591 37.9167 7.17844 38.1958 7.45585C38.475 7.73327 38.6486 8.11558 38.6486 8.53792V9.3398H39.6125V8.38334C39.6125 7.78572 39.3653 7.24192 38.968 6.84719C38.5708 6.45246 38.025 6.20679 37.4222 6.20679H27.8417C27.2389 6.20679 26.693 6.45246 26.2958 6.84719C25.8972 7.24192 25.6514 7.78572 25.6514 8.38334V9.3398H26.6153H26.6125ZM32.8028 15.5037C33.4375 15.5037 33.9528 15.9619 33.9528 16.5278C33.9528 17.0937 33.4375 17.5505 32.8028 17.5505C32.168 17.5505 31.6542 17.0923 31.6542 16.5278C31.6542 15.9633 32.168 15.5037 32.8028 15.5037Z" fill="#8FD700"/>
<path fill-rule="evenodd" clip-rule="evenodd" d="M22.271 17.2482V23.9863C22.271 24.5398 22.4988 25.0421 22.8641 25.4065C23.2335 25.7709 23.7391 25.9958 24.2933 25.9958H26.4946V29.9342C26.4946 31.0388 25.5992 31.9342 24.4946 31.9342H21.8002V25.0873C21.8002 24.756 21.5294 24.4869 21.1974 24.4869C20.8655 24.4869 20.5919 24.756 20.5919 25.0873V31.9342H6.9752V25.0873C6.9752 24.756 6.70436 24.4869 6.37103 24.4869C6.0377 24.4869 5.76686 24.756 5.76686 25.0873V31.9342H3.0752C1.97063 31.9342 1.0752 31.0388 1.0752 29.9342V21.7697C1.0752 19.6208 1.86131 17.6706 3.12658 16.2628C4.37658 14.8716 6.09742 14.0076 7.98492 14.0076H19.5821C19.9696 14.0076 20.3433 14.0421 20.7016 14.1083C20.9349 14.1511 21.1683 14.2091 21.3988 14.2808V16.0461C21.3988 16.496 21.7238 16.8949 22.271 17.2469V17.2482Z" fill="#939393"/>
<path fill-rule="evenodd" clip-rule="evenodd" d="M17.2562 2.08C16.2854 1.11388 14.9423 0.516256 13.459 0.516256C11.9756 0.516256 10.6326 1.11388 9.66036 2.08C8.68814 3.04613 8.08814 4.38077 8.08814 5.85481C8.08814 7.32884 8.68814 8.66348 9.66036 9.62961C10.6326 10.5957 11.9756 11.192 13.459 11.192C14.9423 11.192 16.2854 10.5944 17.2562 9.62961C18.2284 8.66348 18.8298 7.32884 18.8298 5.85481C18.8298 4.38077 18.2284 3.04613 17.2562 2.08Z" fill="#939393"/>
</svg>
