<svg width="22" height="18" viewBox="0 0 22 18" fill="none" xmlns="http://www.w3.org/2000/svg">
<path d="M10.9936 0.269492C10.6917 0.10188 10.3247 0.101881 10.0228 0.269493L1.27657 5.12535C0.590304 5.50636 0.59048 6.49333 1.27688 6.8741L3.631 8.18V13.5915C3.631 13.9547 3.82792 14.2894 4.14542 14.4657L10.0226 17.7303C10.3246 17.898 10.6918 17.898 10.9938 17.7303L16.871 14.4657C17.1885 14.2894 17.3854 13.9547 17.3854 13.5915V8.18L19.3503 7.09V13.0175C19.3503 13.5601 19.7902 14 20.3328 14C20.8753 14 21.3152 13.5601 21.3152 13.0175V6.54825C21.3152 6.20988 21.1317 5.89812 20.8359 5.73388L10.9936 0.269492ZM17.2085 6L10.5082 9.72L3.80784 6L10.5082 2.28L17.2085 6ZM15.4205 12.99L10.5082 15.72L5.59591 12.99V9.27L10.0224 11.73C10.3245 11.8979 10.6919 11.8979 10.994 11.73L15.4205 9.27V12.99Z" fill="#939393"/>
</svg>
