<svg width="16" height="16" viewBox="0 0 16 16" fill="none" xmlns="http://www.w3.org/2000/svg">
<path d="M1.09089 14.4042L7.5518 7.9934L1.09089 1.59582C1.05075 1.55607 1.00055 1.465 1 1.33773C0.999472 1.21369 1.04588 1.13299 1.08585 1.09517L1.10296 1.07898L1.11926 1.06209C1.15144 1.02874 1.20156 1.00414 1.27468 1.00445C1.35317 1.00478 1.41444 1.0344 1.44735 1.067L8.00372 7.5591L14.5601 1.067C14.6562 0.971823 14.8021 0.985254 14.8763 1.06209L14.8926 1.07898L14.9097 1.09517C14.955 1.13804 15 1.2198 15 1.33877C15 1.45741 14.9544 1.55535 14.8991 1.6131L8.44232 7.9934L14.9047 14.3924C14.9512 14.4385 15 14.5316 15 14.6568C15 14.7801 14.9531 14.8638 14.9097 14.9048L14.8926 14.921L14.8763 14.9379C14.8021 15.0147 14.6562 15.0282 14.5601 14.933L8.00372 8.4409L1.44735 14.933C1.41444 14.9656 1.35317 14.9952 1.27469 14.9956C1.20156 14.9959 1.15144 14.9713 1.11926 14.9379L1.10296 14.921L1.08585 14.9048C1.04588 14.867 0.999472 14.7863 1 14.6623C1.00055 14.535 1.05075 14.4439 1.09089 14.4042Z" fill="#939393" stroke="#939393" stroke-width="1.4"/>
</svg>
