<svg width="20" height="20" viewBox="0 0 20 20" fill="none" xmlns="http://www.w3.org/2000/svg">
<path d="M10.914 0.912343C10.914 0.420394 10.4928 0 10 0C9.50717 0 9.09498 0.420394 9.09498 0.912343V2.72809C9.09498 3.22004 9.50717 3.63148 10 3.63148C10.4928 3.63148 10.914 3.22004 10.914 2.72809V0.912343ZM14.4982 4.23971C14.1487 4.58855 14.1487 5.16995 14.5072 5.51878C14.8477 5.86762 15.4391 5.86762 15.7885 5.50984L17.0789 4.22182C17.4283 3.88193 17.4283 3.28265 17.0789 2.93381C16.7294 2.59392 16.147 2.59392 15.7975 2.94275L14.4982 4.23971ZM4.21147 5.50984C4.55197 5.86762 5.14337 5.86762 5.49283 5.51878C5.84229 5.17889 5.84229 4.57961 5.50179 4.23971L4.21147 2.94275C3.87097 2.60286 3.27957 2.59392 2.93011 2.93381C2.58065 3.28265 2.58065 3.88193 2.92115 4.21288L4.21147 5.50984ZM10 5.28623C7.41935 5.28623 5.27778 7.41503 5.27778 10C5.27778 12.585 7.41935 14.7138 10 14.7138C12.5806 14.7138 14.7133 12.585 14.7133 10C14.7133 7.41503 12.5806 5.28623 10 5.28623ZM10 6.97674C11.6487 6.97674 13.0287 8.34526 13.0287 10C13.0287 11.6547 11.6487 13.0233 10 13.0233C8.34229 13.0233 6.96237 11.6547 6.96237 10C6.96237 8.34526 8.34229 6.97674 10 6.97674ZM19.095 10.9123C19.5878 10.9123 20 10.492 20 10C20 9.50805 19.5878 9.0966 19.095 9.0966H17.276C16.7832 9.0966 16.371 9.50805 16.371 10C16.371 10.492 16.7832 10.9123 17.276 10.9123H19.095ZM0.913979 9.0966C0.412186 9.0966 0 9.50805 0 10C0 10.492 0.412186 10.9123 0.913979 10.9123H2.72401C3.21685 10.9123 3.63799 10.492 3.63799 10C3.63799 9.50805 3.21685 9.0966 2.72401 9.0966H0.913979ZM15.7796 14.4902C15.4301 14.1413 14.8477 14.1503 14.4982 14.4991C14.1487 14.839 14.1487 15.4204 14.5072 15.7782L15.8065 17.0662C16.147 17.415 16.7384 17.4061 17.0878 17.0572C17.4283 16.7084 17.4283 16.127 17.0789 15.7782L15.7796 14.4902ZM2.92115 15.7692C2.57168 16.1181 2.56272 16.7084 2.90323 17.0483C3.25269 17.3971 3.85305 17.4061 4.19355 17.0662L5.49283 15.7782C5.84229 15.4293 5.84229 14.839 5.50179 14.4991C5.15233 14.1503 4.56093 14.1503 4.21147 14.4902L2.92115 15.7692ZM10.914 17.2719C10.914 16.78 10.4928 16.3685 10 16.3685C9.50717 16.3685 9.09498 16.78 9.09498 17.2719V19.0877C9.09498 19.5796 9.50717 20 10 20C10.4928 20 10.914 19.5796 10.914 19.0877V17.2719Z" fill="#F4B235"/>
</svg>
