<svg width="28" height="24" viewBox="0 0 28 24" fill="none" xmlns="http://www.w3.org/2000/svg">
<path d="M0.938172 11.1738C3.74377 9.62843 6.87557 8.33863 9.80177 7.04223C14.836 4.91883 19.8902 2.83223 24.9954 0.889632C25.9886 0.558632 27.7734 0.235033 27.9484 1.70703C27.8524 3.79063 27.4584 5.86203 27.188 7.93343C26.5018 12.4886 25.7084 17.0282 24.935 21.5684C24.6684 23.0806 22.774 23.8636 21.5618 22.8958C18.6486 20.9278 15.713 18.9794 12.837 16.9658C11.895 16.0086 12.7686 14.6338 13.6098 13.9502C16.0092 11.5856 18.5538 9.57663 20.8278 7.08983C21.4412 5.60863 19.6288 6.85703 19.031 7.23963C15.7462 9.50323 12.5418 11.905 9.07857 13.8944C7.30957 14.8682 5.24777 14.036 3.47957 13.4924C1.89417 12.8362 -0.429028 12.1748 0.937972 11.174L0.938172 11.1738Z" fill="white"/>
</svg>
