<svg width="33" height="19" viewBox="0 0 33 19" fill="none" xmlns="http://www.w3.org/2000/svg">
<path fill-rule="evenodd" clip-rule="evenodd" d="M16.0936 18.5261H17.9777C17.9777 18.5261 18.546 18.464 18.8363 18.1501C19.1032 17.8624 19.0953 17.3228 19.0953 17.3228C19.0953 17.3228 19.0576 14.7953 20.2316 14.4234C21.389 14.0558 22.8721 16.8655 24.4472 17.9454C25.6379 18.7643 26.5424 18.5847 26.5424 18.5847L30.7495 18.5262C30.7495 18.5262 32.9513 18.3905 31.9069 16.6592C31.8211 16.5166 31.299 15.3782 28.7776 13.0386C26.1393 10.5903 26.4922 10.985 29.6716 6.74863C31.608 4.16873 32.381 2.59395 32.1407 1.91897C31.9089 1.27558 30.4864 1.44694 30.4864 1.44694L25.7464 1.47612C25.7464 1.47612 25.3956 1.42812 25.1344 1.58268C24.8796 1.73513 24.7166 2.09244 24.7166 2.09244C24.7166 2.09244 23.9666 4.08972 22.9661 5.78547C20.8562 9.37039 20.0123 9.55836 19.6676 9.33699C18.8656 8.81676 19.066 7.25244 19.066 6.14105C19.066 2.66873 19.5924 1.22105 18.0402 0.847418C17.5264 0.72233 17.1462 0.640347 15.8302 0.628059C14.1382 0.609243 12.7072 0.632474 11.8967 1.02915C11.3578 1.29238 10.9421 1.88172 11.1949 1.91484C11.5082 1.95641 12.2184 2.10723 12.5944 2.6191C13.0791 3.279 13.0624 4.76182 13.0624 4.76182C13.0624 4.76182 13.3423 8.85017 12.4106 9.35772C11.7713 9.70716 10.8961 8.99427 9.01394 5.74361C8.05096 4.07897 7.32395 2.23884 7.32395 2.23884C7.32395 2.23884 7.18398 1.89603 6.93333 1.7119C6.62834 1.48831 6.2043 1.41785 6.2043 1.41785L1.70238 1.44684C1.70238 1.44684 1.02578 1.46537 0.777232 1.76019C0.557872 2.02102 0.760816 2.56236 0.760816 2.56236C0.760816 2.56236 4.28469 10.8096 8.27666 14.965C11.9365 18.7769 16.0936 18.5261 16.0936 18.5261Z" fill="white"/>
</svg>
