<svg width="24" height="24" viewBox="0 0 24 24" fill="none" xmlns="http://www.w3.org/2000/svg">
<path d="M17.4422 24C17.1338 24 16.8753 23.8912 16.6667 23.6735C16.458 23.4558 16.3537 23.1927 16.3537 22.8844C16.3537 22.576 16.458 22.3175 16.6667 22.1088C16.8753 21.9002 17.1338 21.7959 17.4422 21.7959C18.6395 21.7959 19.6644 21.3696 20.517 20.517C21.3696 19.6644 21.7959 18.6395 21.7959 17.4422C21.7959 17.1338 21.9048 16.8707 22.1224 16.6531C22.3401 16.4354 22.6032 16.3265 22.9116 16.3265C23.22 16.3265 23.4785 16.4354 23.6871 16.6531C23.8957 16.8707 24 17.1338 24 17.4422C24 19.2562 23.3605 20.8027 22.0816 22.0816C20.8027 23.3605 19.2562 24 17.4422 24ZM1.11565 7.64626C0.807256 7.64626 0.544218 7.54195 0.326531 7.33333C0.108844 7.12472 0 6.86621 0 6.55782C0 4.74376 0.639456 3.19728 1.91837 1.91837C3.19728 0.639456 4.74376 0 6.55782 0C6.86621 0 7.12925 0.104308 7.34694 0.312925C7.56463 0.521542 7.67347 0.780045 7.67347 1.08844C7.67347 1.39683 7.56463 1.65986 7.34694 1.87755C7.12925 2.09524 6.86621 2.20408 6.55782 2.20408C5.36054 2.20408 4.3356 2.63039 3.48299 3.48299C2.63039 4.3356 2.20408 5.36054 2.20408 6.55782C2.20408 6.86621 2.09977 7.12472 1.89116 7.33333C1.68254 7.54195 1.42404 7.64626 1.11565 7.64626ZM19.8639 3.7551C20.0816 3.97279 20.1905 4.22676 20.1905 4.51701C20.1905 4.80726 20.0816 5.06122 19.8639 5.27891L12.9524 12.2177C12.7528 12.4354 12.5034 12.5397 12.2041 12.5306C11.9048 12.5215 11.6463 12.4172 11.4286 12.2177C11.2109 12 11.102 11.7415 11.102 11.4422C11.102 11.1429 11.2109 10.8844 11.4286 10.6667L18.3401 3.7551C18.5578 3.53741 18.8118 3.42857 19.102 3.42857C19.3923 3.42857 19.6463 3.53741 19.8639 3.7551ZM21.7959 7.21088C22.0136 7.42857 22.1224 7.68707 22.1224 7.98639C22.1224 8.28571 22.0136 8.54422 21.7959 8.7619L15.6463 14.9116C15.4467 15.1111 15.1973 15.2109 14.898 15.2109C14.5986 15.2109 14.3401 15.1111 14.1224 14.9116C13.9048 14.6939 13.7914 14.4354 13.7823 14.1361C13.7732 13.8367 13.8776 13.5782 14.0952 13.3605L20.2449 7.21088C20.4626 6.9932 20.7211 6.88435 21.0204 6.88435C21.3197 6.88435 21.5782 6.9932 21.7959 7.21088ZM4.68027 19.3197C3.02948 17.6689 2.20408 15.6825 2.20408 13.3605C2.20408 11.0385 3.02948 9.05215 4.68027 7.40136L7.18367 4.89796C7.40136 4.68027 7.65533 4.57143 7.94558 4.57143C8.23583 4.57143 8.4898 4.68027 8.70748 4.89796L9.55102 5.7415C9.67801 5.86848 9.78685 6 9.87755 6.13605C9.96825 6.27211 10.059 6.4127 10.1497 6.55782L14.1769 2.5034C14.3946 2.28571 14.6531 2.17687 14.9524 2.17687C15.2517 2.17687 15.5102 2.28571 15.7279 2.5034C15.9456 2.72109 16.0544 2.97959 16.0544 3.27891C16.0544 3.57823 15.9456 3.83673 15.7279 4.05442L11.0204 8.7619L8.70748 11.0476L9.22449 11.5646C10.059 12.3991 10.458 13.3968 10.4218 14.5578C10.3855 15.7188 9.94104 16.7256 9.08844 17.5782L9.06122 17.6054C8.86168 17.805 8.61224 17.9048 8.31292 17.9048C8.01361 17.9048 7.7551 17.805 7.53741 17.6054C7.31973 17.3878 7.21088 17.1293 7.21088 16.8299C7.21088 16.5306 7.31973 16.2721 7.53741 16.0544C7.95465 15.6372 8.18594 15.1429 8.23129 14.5714C8.27664 14 8.0907 13.5057 7.67347 13.0884L6.39456 11.8367C6.17687 11.619 6.06803 11.3605 6.06803 11.0612C6.06803 10.7619 6.17687 10.5034 6.39456 10.2857L7.94558 8.7619C8.16326 8.54422 8.27211 8.28571 8.27211 7.98639C8.27211 7.68707 8.16326 7.42857 7.94558 7.21088L6.20408 8.95238C4.97052 10.1859 4.35374 11.6599 4.35374 13.3741C4.35374 15.0884 4.97052 16.5624 6.20408 17.7959C7.43764 19.0295 8.9161 19.6463 10.6395 19.6463C12.3628 19.6463 13.8413 19.0295 15.0748 17.7959L21.5782 11.2653C21.7959 11.0476 22.0544 10.9388 22.3537 10.9388C22.6531 10.9388 22.9116 11.0476 23.1292 11.2653C23.3469 11.483 23.4558 11.7415 23.4558 12.0408C23.4558 12.3401 23.3469 12.5986 23.1292 12.8163L16.5986 19.3197C14.9478 20.9705 12.9615 21.7959 10.6395 21.7959C8.31746 21.7959 6.33107 20.9705 4.68027 19.3197Z" fill="#939393"/>
</svg>
