<svg width="17" height="17" viewBox="0 0 17 17" fill="none" xmlns="http://www.w3.org/2000/svg">
<path d="M12.3549 17C12.1364 17 11.9533 16.9229 11.8056 16.7687C11.6578 16.6145 11.5839 16.4282 11.5839 16.2097C11.5839 15.9913 11.6578 15.8082 11.8056 15.6604C11.9533 15.5127 12.1364 15.4388 12.3549 15.4388C13.2029 15.4388 13.9289 15.1368 14.5329 14.5329C15.1368 13.9289 15.4388 13.2029 15.4388 12.3549C15.4388 12.1364 15.5159 11.9501 15.6701 11.7959C15.8243 11.6417 16.0106 11.5646 16.229 11.5646C16.4475 11.5646 16.6306 11.6417 16.7783 11.7959C16.9261 11.9501 17 12.1364 17 12.3549C17 13.6398 16.5471 14.7353 15.6412 15.6412C14.7353 16.5471 13.6398 17 12.3549 17ZM0.790249 5.4161C0.571806 5.4161 0.385487 5.34221 0.231293 5.19444C0.0770975 5.04667 0 4.86357 0 4.64512C0 3.36017 0.452948 2.26474 1.35884 1.35884C2.26474 0.452948 3.36017 0 4.64512 0C4.86357 0 5.04989 0.0738851 5.20408 0.221655C5.35828 0.369426 5.43537 0.552532 5.43537 0.770975C5.43537 0.989418 5.35828 1.17574 5.20408 1.32993C5.04989 1.48413 4.86357 1.56122 4.64512 1.56122C3.79705 1.56122 3.07105 1.86319 2.46712 2.46712C1.86319 3.07105 1.56122 3.79705 1.56122 4.64512C1.56122 4.86357 1.48734 5.04667 1.33957 5.19444C1.1918 5.34221 1.00869 5.4161 0.790249 5.4161ZM14.0703 2.65986C14.2245 2.81406 14.3016 2.99395 14.3016 3.19955C14.3016 3.40514 14.2245 3.58503 14.0703 3.73923L9.1746 8.65419C9.03326 8.80839 8.85658 8.88227 8.64456 8.87585C8.43254 8.86942 8.24943 8.79554 8.09524 8.65419C7.94104 8.5 7.86395 8.31689 7.86395 8.10487C7.86395 7.89286 7.94104 7.70975 8.09524 7.55555L12.9909 2.65986C13.1451 2.50567 13.325 2.42857 13.5306 2.42857C13.7362 2.42857 13.9161 2.50567 14.0703 2.65986ZM15.4388 5.10771C15.593 5.2619 15.6701 5.44501 15.6701 5.65703C15.6701 5.86905 15.593 6.05215 15.4388 6.20635L11.0828 10.5624C10.9414 10.7037 10.7647 10.7744 10.5527 10.7744C10.3407 10.7744 10.1576 10.7037 10.0034 10.5624C9.84921 10.4082 9.7689 10.2251 9.76247 10.013C9.75605 9.80102 9.82993 9.61791 9.98413 9.46372L14.3401 5.10771C14.4943 4.95351 14.6774 4.87642 14.8895 4.87642C15.1015 4.87642 15.2846 4.95351 15.4388 5.10771ZM3.31519 13.6848C2.14588 12.5155 1.56122 11.1085 1.56122 9.46372C1.56122 7.81897 2.14588 6.41194 3.31519 5.24263L5.08843 3.46939C5.24263 3.31519 5.42252 3.2381 5.62812 3.2381C5.83371 3.2381 6.01361 3.31519 6.1678 3.46939L6.76531 4.06689C6.85525 4.15684 6.93235 4.25 6.9966 4.34637C7.06085 4.44274 7.12509 4.54233 7.18934 4.64512L10.0419 1.77324C10.1961 1.61905 10.3793 1.54195 10.5913 1.54195C10.8033 1.54195 10.9864 1.61905 11.1406 1.77324C11.2948 1.92744 11.3719 2.11054 11.3719 2.32256C11.3719 2.53458 11.2948 2.71769 11.1406 2.87188L7.80612 6.20635L6.1678 7.8254L6.53401 8.19161C7.12509 8.78269 7.40778 9.48942 7.38209 10.3118C7.35639 11.1342 7.04157 11.8473 6.43764 12.4512L6.41837 12.4705C6.27702 12.6119 6.10034 12.6825 5.88832 12.6825C5.6763 12.6825 5.4932 12.6119 5.339 12.4705C5.18481 12.3163 5.10771 12.1332 5.10771 11.9212C5.10771 11.7092 5.18481 11.5261 5.339 11.3719C5.63454 11.0763 5.79837 10.7262 5.8305 10.3214C5.86262 9.91667 5.73091 9.56651 5.43537 9.27098L4.52948 8.38435C4.37528 8.23016 4.29819 8.04705 4.29819 7.83503C4.29819 7.62302 4.37528 7.43991 4.52948 7.28571L5.62812 6.20635C5.78231 6.05215 5.85941 5.86905 5.85941 5.65703C5.85941 5.44501 5.78231 5.2619 5.62812 5.10771L4.39456 6.34127C3.52079 7.21504 3.0839 8.25907 3.0839 9.47336C3.0839 10.6876 3.52079 11.7317 4.39456 12.6054C5.26833 13.4792 6.31557 13.9161 7.53628 13.9161C8.75699 13.9161 9.80423 13.4792 10.678 12.6054L15.2846 7.97959C15.4388 7.8254 15.6219 7.7483 15.8339 7.7483C16.0459 7.7483 16.229 7.8254 16.3832 7.97959C16.5374 8.13379 16.6145 8.31689 16.6145 8.52891C16.6145 8.74093 16.5374 8.92404 16.3832 9.07823L11.7574 13.6848C10.5881 14.8541 9.18103 15.4388 7.53628 15.4388C5.89153 15.4388 4.4845 14.8541 3.31519 13.6848Z" fill="#939393"/>
</svg>
