<svg width="20" height="15" viewBox="0 0 20 15" fill="none" xmlns="http://www.w3.org/2000/svg">
<path d="M2.72727 2.8125C2.72727 2.03125 2.99242 1.36719 3.52273 0.820312C4.05303 0.273437 4.69697 0 5.45455 0H14.5455C15.303 0 15.947 0.273437 16.4773 0.820312C17.0076 1.36719 17.2727 2.03125 17.2727 2.8125V4.6875C18.0303 4.6875 18.6742 4.96094 19.2045 5.50781C19.7348 6.05469 20 6.71875 20 7.5V12.1875C20 12.9688 19.7348 13.6328 19.2045 14.1797C18.6742 14.7266 18.0303 15 17.2727 15H2.72727C1.9697 15 1.32576 14.7266 0.795455 14.1797C0.265152 13.6328 0 12.9688 0 12.1875V7.5C0 6.71875 0.265152 6.05469 0.795455 5.50781C1.32576 4.96094 1.9697 4.6875 2.72727 4.6875V2.8125ZM4.54545 2.8125V5.4375C4.81818 5.70312 5.03788 6.00781 5.20455 6.35156C5.37121 6.69531 5.45455 7.07812 5.45455 7.5V9.375H14.5455V7.5C14.5455 7.07812 14.6288 6.69531 14.7955 6.35156C14.9621 6.00781 15.1818 5.70312 15.4545 5.4375V2.8125C15.4545 2.54688 15.3674 2.32422 15.1932 2.14453C15.0189 1.96484 14.803 1.875 14.5455 1.875H5.45455C5.19697 1.875 4.98106 1.96484 4.80682 2.14453C4.63258 2.32422 4.54545 2.54688 4.54545 2.8125ZM16.3636 11.25H3.63636V7.5C3.63636 7.375 3.61364 7.25391 3.56818 7.13672C3.52273 7.01953 3.45833 6.91797 3.375 6.83203C3.29167 6.74609 3.19318 6.67969 3.07955 6.63281C2.96591 6.58594 2.84848 6.5625 2.72727 6.5625C2.4697 6.5625 2.25379 6.65234 2.07955 6.83203C1.9053 7.01172 1.81818 7.23438 1.81818 7.5V12.1875C1.81818 12.4531 1.9053 12.6758 2.07955 12.8555C2.25379 13.0352 2.4697 13.125 2.72727 13.125H17.2727C17.5303 13.125 17.7462 13.0352 17.9205 12.8555C18.0947 12.6758 18.1818 12.4531 18.1818 12.1875V7.5C18.1818 7.23438 18.0947 7.01172 17.9205 6.83203C17.7462 6.65234 17.5303 6.5625 17.2727 6.5625C17.1515 6.5625 17.0341 6.58594 16.9205 6.63281C16.8068 6.67969 16.7083 6.74609 16.625 6.83203C16.5417 6.91797 16.4773 7.01953 16.4318 7.13672C16.3864 7.25391 16.3636 7.375 16.3636 7.5V11.25Z" fill="#939393"/>
</svg>
