<svg width="19" height="18" viewBox="0 0 19 18" fill="none" xmlns="http://www.w3.org/2000/svg">
<path d="M1.9 18C1.3775 18 0.930208 17.8145 0.558125 17.4434C0.186042 17.0724 0 16.6263 0 16.1053V5.68421C0 5.16316 0.186042 4.71711 0.558125 4.34605C0.930208 3.975 1.3775 3.78947 1.9 3.78947H5.7V1.89474C5.7 1.37368 5.88604 0.927632 6.25812 0.556579C6.63021 0.185526 7.0775 0 7.6 0H11.4C11.9225 0 12.3698 0.185526 12.7419 0.556579C13.114 0.927632 13.3 1.37368 13.3 1.89474V3.78947H17.1C17.6225 3.78947 18.0698 3.975 18.4419 4.34605C18.814 4.71711 19 5.16316 19 5.68421V16.1053C19 16.6263 18.814 17.0724 18.4419 17.4434C18.0698 17.8145 17.6225 18 17.1 18H1.9ZM1.9 16.1053H17.1V5.68421H1.9V16.1053ZM7.6 3.78947H11.4V1.89474H7.6V3.78947Z" fill="#939393"/>
</svg>
