<svg width="80" height="44" viewBox="0 0 80 44" fill="none" xmlns="http://www.w3.org/2000/svg">
<path d="M13.2715 25.4265L13.4194 25.4939C13.6998 25.5796 13.9905 25.6575 14.2968 25.7302C14.9795 25.0579 17.0224 24.3778 19.6726 24.3778C22.3229 24.3778 25.0251 24.7022 25.5287 25.3616C25.7234 25.2214 25.822 25.0604 25.8272 24.8813C25.8298 24.6867 25.674 24.5101 25.3937 24.3544C24.1036 23.882 22.0426 23.7236 19.7219 23.7236C16.8692 23.7236 14.0606 24.5075 13.2741 25.4239" fill="#00694E"/>
<path d="M18.8171 31.3576C17.9838 29.7768 15.4166 28.5152 14.6353 27.5574C14.3653 27.4795 14.111 27.3991 13.8773 27.3108C13.6437 27.2251 13.4101 27.1317 13.1895 27.0356C13.3815 27.4198 13.6775 27.8273 14.2667 28.3543C14.8118 28.8397 16.0448 29.5873 16.9793 30.3504C17.9475 31.1447 18.7574 32.0481 18.8898 33.4498L19.4816 33.0474C19.4816 33.0474 19.1857 32.0481 18.8171 31.355" fill="#00694E"/>
<path d="M2.22632 15.0902C1.83695 15.3524 1.54883 15.695 1.54883 15.9806C1.54883 16.2661 1.70457 16.5387 2.00049 16.8034C4.68191 14.8566 11.4023 13.7923 19.2727 13.7923C27.143 13.7923 33.661 14.8255 36.4177 16.7152C36.6695 16.4738 36.8045 16.222 36.8045 15.9676C36.8045 15.7989 36.7474 15.6353 36.5423 15.3965C36.4151 15.2538 36.2048 15.098 35.9868 14.963C32.2541 13.5431 25.1054 12.9202 19.2727 12.9202C13.44 12.9202 5.8526 13.5821 2.22632 15.0902Z" fill="#00694E"/>
<path d="M7.96875 18.9033C8.46973 18.9941 9.00446 19.0538 9.55476 19.1732H9.56255C10.7618 18.4568 12.8514 18.0233 14.4763 17.7923C16.0987 17.5665 17.9027 17.4367 19.346 17.4367C23.1721 17.4367 27.7562 17.6002 29.8017 18.6074C30.1002 18.436 30.2664 18.2362 30.2664 18.0129C30.2664 17.7533 29.8848 17.5483 29.594 17.4185C29.5577 17.4003 29.5136 17.3822 29.4772 17.3666C26.788 16.7566 22.7386 16.6008 19.3226 16.6008C15.0396 16.6008 9.73647 17.4496 7.97135 18.9033" fill="#00694E"/>
<path d="M10.9688 4.25297V4.50216C10.9688 4.52812 10.9947 4.54629 11.0181 4.56706C11.9162 5.30166 13.0428 6.21537 14.4834 7.44057C15.1142 7.9727 16.4328 9.09926 18.3615 11.085L18.0396 8.39841C17.8865 7.52104 17.6009 6.97593 17.2453 6.55801C16.7936 6.01809 16.3913 5.63651 15.3089 5.19783C13.9357 4.63974 12.1939 4.24259 11.2076 4.19067C11.2076 4.19067 11.2015 4.19067 11.1894 4.19067C11.0778 4.19067 10.9688 4.23221 10.9688 4.28931" fill="#00694E"/>
<path d="M27.0172 0.792633C26.9938 0.792633 26.9652 0.815997 26.9263 0.82638C24.681 1.47272 22.4772 3.0172 21.1897 4.26836C20.0917 5.33781 19.3103 6.8122 19.0585 8.60847C18.8639 9.99461 18.8457 12.3593 18.8457 12.3593V33.6134H19.5621V13.6754C19.5621 13.0031 19.6088 12.4061 19.9203 11.3989C20.385 9.87001 21.5712 7.88425 22.9756 6.09577C24.5122 4.13597 26.0204 2.5266 27.217 1.20536C27.3494 1.0548 27.3183 0.91204 27.1158 0.790039H27.0172V0.792633Z" fill="#00694E"/>
<path d="M13.8782 27.3629C15.3007 27.8821 17.5512 28.2792 19.5603 28.2792C24.3962 28.2792 26.883 27.2747 26.883 25.8158C26.883 25.0994 26.1821 24.5906 25.1386 24.2714C25.5332 24.4427 25.7512 24.6555 25.746 24.884C25.7356 25.7951 23.1191 26.2026 19.4824 26.2026C18.252 26.2026 16.6297 26.0806 15.5732 25.9145C13.1566 25.5407 11.4564 24.8061 10.4051 23.8353C9.62893 23.1136 9.13054 22.5763 8.92548 21.7119C8.47901 21.6341 8.04551 21.551 7.625 21.4653C8.13637 23.8794 10.5426 26.1403 13.8756 27.3629" fill="#AF8C2F"/>
<path d="M37.231 15.534C36.8027 15.2874 36.242 15.046 35.6009 14.8228C35.9254 14.9785 36.2576 15.2069 36.4393 15.4146C36.647 15.6508 36.7145 15.8169 36.7145 15.9857C36.7145 16.5541 36.037 17.094 34.9623 17.5769V20.3206C34.9623 20.3206 34.9519 20.4296 35.0428 20.414C37.2284 19.56 38.5367 18.5347 38.5367 17.1745C38.5367 16.5775 38.1084 16.0402 37.231 15.5366M29.384 17.3484C29.2932 17.3277 29.1608 17.3017 29.1608 17.3017C29.1608 17.3017 29.3503 17.3614 29.4775 17.4159C29.7682 17.5483 30.1498 17.7508 30.1498 18.0129C30.1498 18.9604 27.2451 19.4069 23.162 19.573C22.8349 19.586 20.2547 19.6587 19.2632 19.6587C9.59913 19.6587 1.64832 18 1.64832 15.9857C1.64832 15.6534 2.02988 15.2485 2.5127 14.9811C0.955239 15.5574 0 16.2868 0 17.1771C0 20.3284 8.66465 22.6204 19.3021 22.6204C20.6233 22.6204 22.4326 22.5555 22.5702 22.5451C28.2393 22.2908 32.5586 21.2628 32.4678 19.3082C32.4288 18.3971 31.2841 17.7404 29.3814 17.3484" fill="#AF8C2F"/>
<path d="M35.7438 18.9734C35.7438 19.7443 35.4037 20.3647 34.9832 20.3647C34.5627 20.3647 34.2227 19.7417 34.2227 18.9734C34.2227 18.205 34.5601 17.582 34.9832 17.582C35.4063 17.582 35.7438 18.2024 35.7438 18.9734Z" fill="#00694E"/>
<path d="M49.3462 30.1794C49.3462 29.4708 48.7569 28.731 47.9315 28.731H46.2961C45.6706 28.731 45.1073 28.2404 45.1073 27.5733C45.1073 26.9062 45.6732 26.3922 46.2987 26.3922L49.3436 26.4V25.2449H43.6926C42.9476 25.2449 42.252 25.8159 42.252 26.6102V28.5623C42.252 29.3514 42.9346 30.0081 43.6926 30.0081H45.3279C45.9172 30.0081 46.5116 30.4442 46.5116 31.171C46.5116 31.8225 45.9769 32.3313 45.3305 32.3313H42.252V33.4942H47.9237C48.7439 33.4942 49.3436 32.8479 49.3436 32.1262V30.1742L49.3462 30.1794Z" fill="#AF8C2F"/>
<path d="M66.0841 28.4376V29.4266H63.2937V27.8172C63.2937 27.3551 63.4702 27.0229 63.7039 26.8022C63.9868 26.5375 64.3009 26.4051 64.6876 26.4051C65.0744 26.4051 65.4196 26.5505 65.7026 26.849C65.9648 27.1319 66.0816 27.4901 66.0816 27.8172V28.4402L66.0841 28.4376ZM67.5118 25.2448H61.866C61.0094 25.2448 60.5059 25.9145 60.5059 26.6127V32.1313C60.5059 32.8789 61.051 33.4967 61.866 33.4967H68.7578V32.3338H64.5968C63.8232 32.3338 63.2937 31.7705 63.2937 31.0204V30.5895H68.872V26.6179C68.872 25.8262 68.2931 25.2422 67.5092 25.2422" fill="#AF8C2F"/>
<path d="M55.0424 22.8048H52.252V32.1314C52.252 32.9024 52.8334 33.4968 53.6355 33.4968H57.8328V32.3339H56.3688C55.5901 32.3339 55.0424 31.7239 55.0424 31.0204V26.4052H57.8328V25.2423H55.0424V22.8022V22.8048Z" fill="#AF8C2F"/>
<path d="M76.0004 26.4052H79.8006V25.2449H73.2982C72.5376 25.2449 71.8965 25.8237 71.8965 26.605V32.134C71.8965 32.757 72.3689 33.4968 73.2982 33.4968H79.8006V32.3339H76.0264C75.3463 32.3339 74.6869 31.8096 74.6869 31.0204V27.742C74.6869 26.8776 75.367 26.4026 76.003 26.4026" fill="#AF8C2F"/>
<path d="M36.6795 30.9346C36.6795 31.3136 36.5082 31.6614 36.259 31.921C36.0228 32.165 35.6568 32.3415 35.2466 32.3415C34.8365 32.3415 34.4757 32.1832 34.2213 31.9366C33.9747 31.6926 33.7748 31.3084 33.7748 30.9346V27.8067C33.7748 27.4797 33.9436 27.0955 34.2057 26.8307C34.4601 26.5712 34.8391 26.405 35.2258 26.405C35.6126 26.405 36.0098 26.5763 36.2667 26.8463C36.5263 27.1189 36.6795 27.4823 36.6795 27.8119V30.9372V30.9346ZM39.4673 32.1313V26.6153C39.4673 25.8547 38.8625 25.2473 38.0552 25.2473H32.4172C31.571 25.2473 30.9844 25.9144 30.9844 26.6153V32.1313C30.9844 32.8892 31.6307 33.5018 32.4172 33.5018H38.0552C38.8417 33.5018 39.4673 32.91 39.4673 32.1365" fill="#AF8C2F"/>
<path d="M18.8477 41.821V39.0747H20.7192V39.5212H19.3928V41.821H18.8477Z" fill="#AF8C2F"/>
<path d="M21.5137 43.2099V39.0723H22.0458V39.5006H22.064C22.1574 39.35 22.2898 39.228 22.4637 39.1346C22.6376 39.0411 22.8349 38.9944 23.0556 38.9944C23.4579 38.9944 23.7876 39.132 24.0445 39.4097C24.3015 39.6849 24.4287 40.0275 24.4287 40.4376C24.4287 40.8478 24.3015 41.1956 24.0471 41.4759C23.7928 41.7537 23.4579 41.8938 23.0452 41.8938C22.8479 41.8938 22.6636 41.8497 22.4897 41.7641C22.3158 41.6784 22.1782 41.559 22.0795 41.4084H22.0614V43.2099H21.5163H21.5137ZM22.9517 41.437C23.2373 41.437 23.4605 41.3384 23.624 41.1437C23.785 40.949 23.868 40.7128 23.868 40.4402C23.868 40.1677 23.7876 39.9315 23.624 39.7394C23.4631 39.5473 23.2373 39.4486 22.9517 39.4486C22.6818 39.4486 22.4585 39.5473 22.2846 39.7446C22.1107 39.9418 22.025 40.1755 22.025 40.4454C22.025 40.7154 22.1107 40.949 22.2846 41.1437C22.4585 41.3384 22.6792 41.437 22.9517 41.437Z" fill="#AF8C2F"/>
<path d="M25.5035 43.2098C25.3763 43.2098 25.2569 43.1968 25.1453 43.1682L25.1972 42.688C25.2906 42.7192 25.3815 42.7347 25.4697 42.7347C25.6021 42.7347 25.7034 42.6984 25.776 42.6283C25.8487 42.5556 25.9162 42.4388 25.9785 42.2779L26.1524 41.821L24.9766 39.0747H25.584L26.4354 41.2292H26.4458L27.2037 39.0747H27.7826L26.451 42.47C26.3549 42.7217 26.2355 42.906 26.0953 43.028C25.9552 43.15 25.7553 43.2098 25.5009 43.2098H25.5035Z" fill="#AF8C2F"/>
<path d="M28.5221 41.821V39.0747H30.9544V41.821H30.4093V39.5212H29.0647V41.821H28.5195H28.5221Z" fill="#AF8C2F"/>
<path d="M32.1042 41.821V39.0747H34.5364V41.821H33.9913V39.5212H32.6467V41.821H32.1016H32.1042Z" fill="#AF8C2F"/>
<path d="M36.4779 41.8911C36.3611 41.8911 36.2468 41.8755 36.1352 41.8444C36.0236 41.8132 35.9172 41.7665 35.8159 41.7042C35.7147 41.6419 35.6343 41.5537 35.572 41.4394C35.5097 41.3252 35.4785 41.1928 35.4785 41.0423C35.4785 40.8839 35.5174 40.7464 35.5927 40.627C35.668 40.5102 35.764 40.4193 35.8782 40.3544C35.9951 40.2895 36.143 40.2402 36.3221 40.2039C36.5012 40.1675 36.6726 40.1442 36.8309 40.1312C36.9918 40.1208 37.1787 40.113 37.389 40.113V40.0377C37.389 39.8405 37.3293 39.6899 37.2073 39.5887C37.0853 39.4874 36.9218 39.4355 36.7115 39.4355C36.4026 39.4355 36.143 39.5419 35.9302 39.7548L35.6395 39.407C35.925 39.1318 36.2988 38.9968 36.7634 38.9968C37.1424 38.9968 37.4279 39.0955 37.62 39.2953C37.8121 39.4952 37.9107 39.7548 37.9107 40.0741V41.2733C37.9107 41.5121 37.9237 41.6938 37.9523 41.8184H37.4591C37.4279 41.686 37.4123 41.5562 37.4123 41.4239H37.3942C37.1891 41.7328 36.8828 41.8885 36.4727 41.8885L36.4779 41.8911ZM36.5999 41.4628C36.8465 41.4628 37.0411 41.3875 37.1813 41.2396C37.3215 41.0916 37.3916 40.8969 37.3916 40.6581V40.5128H37.2592C36.4441 40.5128 36.0366 40.6867 36.0366 41.0345C36.0366 41.1851 36.0911 41.2941 36.1975 41.3616C36.3065 41.4291 36.4389 41.4628 36.5973 41.4628H36.5999Z" fill="#AF8C2F"/>
<path d="M40.6934 41.821V39.0747H41.2385V40.3311H41.2567L42.4144 39.0747H43.1386L41.8641 40.3778L43.2554 41.821H42.5208L41.2567 40.4764H41.2385V41.821H40.6934Z" fill="#AF8C2F"/>
<path d="M46.1975 41.4836C45.9146 41.7587 45.5616 41.8937 45.1411 41.8937C44.7206 41.8937 44.3675 41.7561 44.0872 41.4836C43.8042 41.2084 43.6641 40.8606 43.6641 40.4401C43.6641 40.0196 43.8042 39.6743 44.0846 39.4018C44.3649 39.1318 44.718 38.9968 45.1411 38.9968C45.5642 38.9968 45.9198 39.1318 46.2001 39.4018C46.4831 39.6717 46.6232 40.017 46.6232 40.4401C46.6232 40.8632 46.4805 41.2084 46.1975 41.4836ZM44.4714 41.1435C44.6349 41.3382 44.8581 41.4368 45.1411 41.4368C45.424 41.4368 45.6472 41.3382 45.8108 41.1435C45.9743 40.9488 46.0574 40.7126 46.0574 40.4401C46.0574 40.1675 45.9743 39.9313 45.8108 39.7392C45.6472 39.5471 45.424 39.4485 45.1411 39.4485C44.8581 39.4485 44.6349 39.5445 44.4714 39.7392C44.3078 39.9313 44.2248 40.1649 44.2248 40.4401C44.2248 40.7152 44.3078 40.9488 44.4714 41.1435Z" fill="#AF8C2F"/>
<path d="M47.584 41.821V39.0747H48.3549L49.2582 41.0786H49.2634L50.1564 39.0747H50.9325V41.821H50.3926V39.7185H50.3822L49.414 41.821H49.0843L48.1291 39.7133H48.1239V41.821H47.584Z" fill="#AF8C2F"/>
<path d="M52.0788 41.821V39.0747H54.511V41.821H53.9659V39.5212H52.6213V41.821H52.0762H52.0788Z" fill="#AF8C2F"/>
<path d="M56.4525 41.8911C56.3357 41.8911 56.2215 41.8755 56.1099 41.8444C55.9982 41.8132 55.8918 41.7665 55.7906 41.7042C55.6894 41.6419 55.6089 41.5537 55.5466 41.4394C55.4843 41.3252 55.4531 41.1928 55.4531 41.0423C55.4531 40.8839 55.4921 40.7464 55.5674 40.627C55.6426 40.5102 55.7387 40.4193 55.8529 40.3544C55.9697 40.2895 56.1176 40.2402 56.2967 40.2039C56.4759 40.1675 56.6472 40.1442 56.8055 40.1312C56.9664 40.1208 57.1533 40.113 57.3636 40.113V40.0377C57.3636 39.8405 57.3039 39.6899 57.1819 39.5887C57.0599 39.4874 56.8964 39.4355 56.6861 39.4355C56.3772 39.4355 56.1176 39.5419 55.9048 39.7548L55.6141 39.407C55.8996 39.1318 56.2734 38.9968 56.738 38.9968C57.117 38.9968 57.4025 39.0955 57.5946 39.2953C57.7867 39.4952 57.8854 39.7548 57.8854 40.0741V41.2733C57.8854 41.5121 57.8983 41.6938 57.9269 41.8184H57.4337C57.4025 41.686 57.387 41.5562 57.387 41.4239H57.3688C57.1637 41.7328 56.8574 41.8885 56.4473 41.8885L56.4525 41.8911ZM56.5745 41.4628C56.8211 41.4628 57.0158 41.3875 57.156 41.2396C57.2961 41.0916 57.3662 40.8969 57.3662 40.6581V40.5128H57.2338C56.4187 40.5128 56.0112 40.6867 56.0112 41.0345C56.0112 41.1851 56.0657 41.2941 56.1722 41.3616C56.2812 41.4291 56.4136 41.4628 56.5719 41.4628H56.5745Z" fill="#AF8C2F"/>
<path d="M59.0059 41.821V39.0747H59.551V40.1649H60.9111V39.0747H61.4562V41.821H60.9111V40.6114H59.551V41.821H59.0059Z" fill="#AF8C2F"/>
<path d="M62.6055 41.821V39.0747H63.1506V41.0553H63.1558L64.5627 39.0747H65.1597V41.821H64.6146V39.8327H64.6042L63.2025 41.821H62.6055Z" fill="#AF8C2F"/>
<path d="M66.3066 41.8212V39.0749H66.8517V41.0554H66.8569L68.2638 39.0749H68.8609V41.8212H68.3158V39.8328H68.3054L66.9036 41.8212H66.3066ZM68.1574 38.3169C68.0043 38.4519 67.8044 38.5194 67.5578 38.5194C67.3112 38.5194 67.1113 38.4493 66.9581 38.3117C66.805 38.1716 66.7142 37.9847 66.683 37.7433L67.0023 37.6965C67.0256 37.8367 67.0879 37.9431 67.1866 38.021C67.2878 38.0989 67.4098 38.1378 67.5578 38.1378C67.7057 38.1378 67.8278 38.0989 67.929 38.021C68.0302 37.9431 68.0899 37.8367 68.1133 37.6965L68.4326 37.7614C68.4014 37.9976 68.3106 38.1819 68.1574 38.3169Z" fill="#AF8C2F"/>
</svg>
